M48
;DRILL file {Pcbnew (2014-01-10 BZR 4027)-stable} date Tue 11 Mar 2014 09:34:28 AM CET
;FORMAT={-:-/ absolute / metric / decimal}
FMAT,2
METRIC,TZ
T1C0.251
T2C0.320
T3C0.500
T4C0.800
T5C1.001
T6C1.016
T7C1.191
T8C3.048
T9C3.200
%
G90
G05
M71
T1
X171.12Y-122.669
X175.133Y-152.121
X177.013Y-142.85
X179.908Y-129.438
X179.984Y-139.776
X179.997Y-134.709
X185.09Y-122.149
X194.348Y-162.268
X194.373Y-168.173
X194.373Y-171.412
X197.32Y-158.458
X197.345Y-164.363
X204.495Y-162.281
X204.495Y-168.173
X204.635Y-171.831
X207.467Y-158.471
X207.467Y-164.363
X209.969Y-119.888
X210.49Y-115.329
X212.433Y-115.329
X212.941Y-119.888
X215.748Y-162.141
X215.913Y-119.888
X219.875Y-119.85
X225.819Y-121.933
X227.749Y-162.141
X230.81Y-122.872
X237.579Y-121.933
X239.751Y-162.141
X241.63Y-117.323
X247.32Y-123.012
X249.784Y-114.465
X249.936Y-150.279
X250.609Y-123.99
X251.46Y-131.166
X251.752Y-162.141
T5
X215.748Y-164.018
X215.748Y-168.519
X222.25Y-164.018
X222.25Y-168.519
X227.749Y-164.018
X227.749Y-168.519
X234.251Y-164.018
X234.251Y-168.519
X239.751Y-164.018
X239.751Y-168.519
X246.253Y-164.018
X246.253Y-168.519
X251.752Y-164.018
X251.752Y-168.519
X258.255Y-164.018
X258.255Y-168.519
T6
X172.987Y-127.47
X184.391Y-131.166
X184.391Y-154.026
X186.931Y-131.166
X186.931Y-154.026
X189.471Y-131.166
X189.471Y-154.026
X191.77Y-123.19
X192.011Y-131.166
X192.011Y-154.026
X194.31Y-125.73
X194.551Y-131.166
X194.551Y-154.026
X196.85Y-123.19
X197.091Y-131.166
X197.091Y-154.026
X199.39Y-125.73
X199.631Y-131.166
X199.631Y-154.026
X202.171Y-131.166
X202.171Y-154.026
X204.711Y-131.166
X204.711Y-154.026
X207.251Y-131.166
X207.251Y-154.026
X209.791Y-131.166
X209.791Y-154.026
X212.331Y-131.166
X212.331Y-154.026
X214.871Y-131.166
X214.871Y-154.026
X217.411Y-131.166
X217.411Y-154.026
X219.951Y-131.166
X219.951Y-154.026
X222.491Y-131.166
X222.491Y-154.026
X225.031Y-131.166
X225.031Y-154.026
X227.571Y-131.166
X227.571Y-154.026
X230.111Y-131.166
X230.111Y-154.026
X232.651Y-131.166
X232.651Y-154.026
X235.191Y-131.166
X235.191Y-154.026
X236.363Y-106.502
X236.363Y-109.002
X237.731Y-131.166
X237.731Y-154.026
X238.463Y-106.502
X240.271Y-131.166
X240.271Y-154.026
X241.063Y-106.502
X242.811Y-131.166
X242.811Y-154.026
X243.163Y-106.502
X243.163Y-109.002
X245.351Y-131.166
X245.351Y-154.026
X253.238Y-116.065
X253.238Y-118.859
X253.238Y-121.526
X253.238Y-124.32
X253.238Y-127.114
X255.778Y-117.462
X255.778Y-120.256
X255.778Y-122.923
X255.778Y-125.717
X262.89Y-146.05
X262.89Y-148.59
X265.43Y-143.51
X265.43Y-146.05
X265.43Y-148.59
X265.43Y-151.13
X266.598Y-164.008
T7
X201.328Y-108.89
X201.328Y-113.97
X202.75Y-111.43
X203.619Y-108.89
X203.619Y-113.97
X204.988Y-111.43
X205.908Y-108.89
X205.908Y-113.97
X207.33Y-111.43
X208.199Y-108.89
X208.199Y-113.97
X209.619Y-111.43
X210.49Y-108.89
X210.49Y-113.97
X211.91Y-111.43
T8
X255.778Y-108.953
X255.778Y-134.353
T9
X193.66Y-111.43
X218.658Y-111.43
T2
X179.677Y-106.802G85X177.498Y-106.802
G05
T3
X173.586Y-111.688G85X173.586Y-109.689
G05
X179.837Y-113.8G85X177.338Y-113.8
G05
T4
X233.013Y-104.202G85X233.013Y-102.802
G05
X240.463Y-102.702G85X239.063Y-102.702
G05
X246.513Y-104.202G85X246.513Y-102.802
G05
T0
M30
