G04 (created by PCBNEW (2014-01-10 BZR 4027)-stable) date Tue 11 Mar 2014 09:34:13 AM CET*
%MOIN*%
G04 Gerber Fmt 3.4, Leading zero omitted, Abs format*
%FSLAX34Y34*%
G01*
G70*
G90*
G04 APERTURE LIST*
%ADD10C,0.00590551*%
%ADD11C,0.075*%
%ADD12C,0.126*%
%ADD13C,0.063*%
%ADD14O,0.0394X0.1378*%
%ADD15O,0.1378X0.0394*%
%ADD16C,0.15*%
%ADD17R,0.06X0.06*%
%ADD18C,0.06*%
%ADD19R,0.0472441X0.110236*%
%ADD20R,0.110236X0.0472441*%
%ADD21C,0.0709*%
%ADD22C,0.024*%
%ADD23C,0.016*%
%ADD24C,0.012*%
%ADD25C,0.008*%
G04 APERTURE END LIST*
G54D10*
G54D11*
X96595Y-51640D03*
X95595Y-51640D03*
X94595Y-51640D03*
X93595Y-51640D03*
X92595Y-51640D03*
X91595Y-51640D03*
X90595Y-51640D03*
X89595Y-51640D03*
X88595Y-51640D03*
X87595Y-51640D03*
X86595Y-51640D03*
X85595Y-51640D03*
X84595Y-51640D03*
X83595Y-51640D03*
X82595Y-51640D03*
X81595Y-51640D03*
X80595Y-51640D03*
X79595Y-51640D03*
X78595Y-51640D03*
X77595Y-51640D03*
X76595Y-51640D03*
X75595Y-51640D03*
X74595Y-51640D03*
X73595Y-51640D03*
X72595Y-51640D03*
X72595Y-60640D03*
X73595Y-60640D03*
X74595Y-60640D03*
X75595Y-60640D03*
X76595Y-60640D03*
X77595Y-60640D03*
X78595Y-60640D03*
X79595Y-60640D03*
X80595Y-60640D03*
X81595Y-60640D03*
X82595Y-60640D03*
X83595Y-60640D03*
X84595Y-60640D03*
X85595Y-60640D03*
X86595Y-60640D03*
X87595Y-60640D03*
X88595Y-60640D03*
X89595Y-60640D03*
X90595Y-60640D03*
X91595Y-60640D03*
X92595Y-60640D03*
X93595Y-60640D03*
X94595Y-60640D03*
X95595Y-60640D03*
X96595Y-60640D03*
G54D12*
X76244Y-43870D03*
X86086Y-43870D03*
G54D13*
X82870Y-42870D03*
X83429Y-43870D03*
X81968Y-42870D03*
X81066Y-42870D03*
X80165Y-42870D03*
X79263Y-42870D03*
X82527Y-43870D03*
X81626Y-43870D03*
X80704Y-43870D03*
X79823Y-43870D03*
X82870Y-44870D03*
X81968Y-44870D03*
X81066Y-44870D03*
X80165Y-44870D03*
X79263Y-44870D03*
G54D14*
X68380Y-43539D03*
G54D15*
X70271Y-44764D03*
X70271Y-42009D03*
G54D16*
X100700Y-52895D03*
X100700Y-42895D03*
G54D17*
X99700Y-45695D03*
G54D18*
X99700Y-46795D03*
X99700Y-47845D03*
X99700Y-48945D03*
X99700Y-50045D03*
X100700Y-46245D03*
X100700Y-47345D03*
X100700Y-48395D03*
X100700Y-49495D03*
X93883Y-41930D03*
X94906Y-41930D03*
X93056Y-41930D03*
X95733Y-41930D03*
X93056Y-42914D03*
X95733Y-42914D03*
G54D19*
X97052Y-40748D03*
X91737Y-40748D03*
G54D20*
X94395Y-40433D03*
G54D21*
X84940Y-64574D03*
X87500Y-64574D03*
X84940Y-66346D03*
X87500Y-66346D03*
X89665Y-64574D03*
X92225Y-64574D03*
X89665Y-66346D03*
X92225Y-66346D03*
X94390Y-64574D03*
X96950Y-64574D03*
X94390Y-66346D03*
X96950Y-66346D03*
X99115Y-64574D03*
X101675Y-64574D03*
X99115Y-66346D03*
X101675Y-66346D03*
G54D17*
X104500Y-57500D03*
G54D18*
X103500Y-57500D03*
G54D17*
X104500Y-58500D03*
G54D18*
X103500Y-58500D03*
X104500Y-56500D03*
X104500Y-59500D03*
X68105Y-50185D03*
X104960Y-64570D03*
X78500Y-49500D03*
X77500Y-48500D03*
X76500Y-49500D03*
X75500Y-48500D03*
G54D22*
X99000Y-51640D03*
X76525Y-67485D03*
X80510Y-66210D03*
X80510Y-63890D03*
X76515Y-63885D03*
X76525Y-66210D03*
X98400Y-59165D03*
X86565Y-47185D03*
X98665Y-48815D03*
X80565Y-67650D03*
X70830Y-50960D03*
X69690Y-56240D03*
X70860Y-55030D03*
X70865Y-53035D03*
X84940Y-63835D03*
X68950Y-59890D03*
X72870Y-48090D03*
X67370Y-48295D03*
X97370Y-48430D03*
X95130Y-46190D03*
X98340Y-45065D03*
X99115Y-63835D03*
X89665Y-63835D03*
X94390Y-63835D03*
X93535Y-48005D03*
X90870Y-48375D03*
X88905Y-48005D03*
X81680Y-64710D03*
X81680Y-62390D03*
X77695Y-64710D03*
X77685Y-62385D03*
X82870Y-45405D03*
X83635Y-45405D03*
X82665Y-47200D03*
X85005Y-47200D03*
X83835Y-47200D03*
G54D23*
X96595Y-51640D02*
X99000Y-51640D01*
X76525Y-66210D02*
X76525Y-67485D01*
X80510Y-66210D02*
X80510Y-63890D01*
X76525Y-66210D02*
X76525Y-64375D01*
X76515Y-64365D02*
X76515Y-63885D01*
X76525Y-64375D02*
X76515Y-64365D01*
G54D24*
X98400Y-60042D02*
X98400Y-59165D01*
X104960Y-64570D02*
X101679Y-64570D01*
X101679Y-64570D02*
X101675Y-64574D01*
X68105Y-50185D02*
X67370Y-50185D01*
X86565Y-47635D02*
X86565Y-47185D01*
X98665Y-48815D02*
X98470Y-48815D01*
X98340Y-48685D02*
X98340Y-48430D01*
X98470Y-48815D02*
X98340Y-48685D01*
X98665Y-49010D02*
X98665Y-48815D01*
G54D23*
X80565Y-67650D02*
X80565Y-66700D01*
X81680Y-65585D02*
X81680Y-64710D01*
X80565Y-66700D02*
X81680Y-65585D01*
G54D24*
X70830Y-50960D02*
X71290Y-50960D01*
X71295Y-50965D02*
X71885Y-50965D01*
X71290Y-50960D02*
X71295Y-50965D01*
G54D23*
X71875Y-56240D02*
X69690Y-56240D01*
G54D24*
X71875Y-55030D02*
X70860Y-55030D01*
X71875Y-53035D02*
X70865Y-53035D01*
X99115Y-63835D02*
X98855Y-63835D01*
X98855Y-63835D02*
X98615Y-64074D01*
X97689Y-63835D02*
X98376Y-63835D01*
X98376Y-63835D02*
X98615Y-64074D01*
X96950Y-64574D02*
X97689Y-63835D01*
X98615Y-64074D02*
X99115Y-64574D01*
X94390Y-63835D02*
X94000Y-63835D01*
X94000Y-63835D02*
X93825Y-64009D01*
X92964Y-63835D02*
X93651Y-63835D01*
X93651Y-63835D02*
X93825Y-64009D01*
X92225Y-64574D02*
X92964Y-63835D01*
X93825Y-64009D02*
X94390Y-64574D01*
X89665Y-63835D02*
X89415Y-63835D01*
X89415Y-63835D02*
X89170Y-64079D01*
X88239Y-63835D02*
X88926Y-63835D01*
X88926Y-63835D02*
X89170Y-64079D01*
X87500Y-64574D02*
X88239Y-63835D01*
X89170Y-64079D02*
X89665Y-64574D01*
X99115Y-63835D02*
X100936Y-63835D01*
X100936Y-63835D02*
X101675Y-64574D01*
X94390Y-63835D02*
X96211Y-63835D01*
X96211Y-63835D02*
X96950Y-64574D01*
X89665Y-63835D02*
X91486Y-63835D01*
X91486Y-63835D02*
X92225Y-64574D01*
X84940Y-63835D02*
X86761Y-63835D01*
X86761Y-63835D02*
X87500Y-64574D01*
X84940Y-63835D02*
X84465Y-63835D01*
X84465Y-63835D02*
X84333Y-63967D01*
X81680Y-64710D02*
X82895Y-64710D01*
X84331Y-63965D02*
X84333Y-63967D01*
X84333Y-63967D02*
X84940Y-64574D01*
X83640Y-63965D02*
X84331Y-63965D01*
X82895Y-64710D02*
X83640Y-63965D01*
X92340Y-43995D02*
X92340Y-42646D01*
X92340Y-42646D02*
X93056Y-41930D01*
X91087Y-49747D02*
X91087Y-51132D01*
X91087Y-51132D02*
X91595Y-51640D01*
X92332Y-54557D02*
X92332Y-52377D01*
X95940Y-59985D02*
X96595Y-60640D01*
X95940Y-58165D02*
X92332Y-54557D01*
X95940Y-58165D02*
X95940Y-59985D01*
X92332Y-52377D02*
X91595Y-51640D01*
X97192Y-60042D02*
X98400Y-60042D01*
X98400Y-60042D02*
X103957Y-60042D01*
X103957Y-60042D02*
X104500Y-59500D01*
X81680Y-62390D02*
X94845Y-62390D01*
X94845Y-62390D02*
X96595Y-60640D01*
X97192Y-60042D02*
X96595Y-60640D01*
G54D23*
X67370Y-59175D02*
X68085Y-59890D01*
X68085Y-59890D02*
X68950Y-59890D01*
X67370Y-59175D02*
X67370Y-50185D01*
X67370Y-50185D02*
X67370Y-48295D01*
X73885Y-48090D02*
X72870Y-48090D01*
X67370Y-48295D02*
X67370Y-45970D01*
X69292Y-42048D02*
X70310Y-42048D01*
X69075Y-42265D02*
X69292Y-42048D01*
X69075Y-44265D02*
X69075Y-42265D01*
X67370Y-45970D02*
X69075Y-44265D01*
G54D25*
X98340Y-48430D02*
X97370Y-48430D01*
G54D24*
X98340Y-45065D02*
X98340Y-48430D01*
X98665Y-49010D02*
X99700Y-50045D01*
X93535Y-46190D02*
X95130Y-46190D01*
X98340Y-45065D02*
X94230Y-45065D01*
X94105Y-45190D02*
X93535Y-45190D01*
X94230Y-45065D02*
X94105Y-45190D01*
G54D23*
X93535Y-45190D02*
X93535Y-46190D01*
X93535Y-46190D02*
X93535Y-48005D01*
X92340Y-43995D02*
X93535Y-45190D01*
G54D24*
X93535Y-48005D02*
X92590Y-48005D01*
X90870Y-48375D02*
X92220Y-48375D01*
X92590Y-48005D02*
X92220Y-48375D01*
X90870Y-48375D02*
X90870Y-49530D01*
X90870Y-49530D02*
X91087Y-49747D01*
X90870Y-48375D02*
X90870Y-47810D01*
X89160Y-47750D02*
X88905Y-48005D01*
X90810Y-47750D02*
X89160Y-47750D01*
X90870Y-47810D02*
X90810Y-47750D01*
X88905Y-48005D02*
X86935Y-48005D01*
X86935Y-48005D02*
X86565Y-47635D01*
X86565Y-47635D02*
X86130Y-47200D01*
X86130Y-47200D02*
X85005Y-47200D01*
X81680Y-62390D02*
X81680Y-64710D01*
X81680Y-62390D02*
X77690Y-62390D01*
X77690Y-62390D02*
X77685Y-62385D01*
X77695Y-64710D02*
X77695Y-62395D01*
X77695Y-62395D02*
X77685Y-62385D01*
X77685Y-62385D02*
X77090Y-62385D01*
X72568Y-42048D02*
X70310Y-42048D01*
X73885Y-43365D02*
X72568Y-42048D01*
X73885Y-48965D02*
X73885Y-48090D01*
X73885Y-48090D02*
X73885Y-43365D01*
X71875Y-50975D02*
X71885Y-50965D01*
X71885Y-50965D02*
X73885Y-48965D01*
X71875Y-61405D02*
X71875Y-56240D01*
X71875Y-56240D02*
X71875Y-55030D01*
X71875Y-55030D02*
X71875Y-53035D01*
X71875Y-53035D02*
X71875Y-50975D01*
X72390Y-61920D02*
X71875Y-61405D01*
X76625Y-61920D02*
X72390Y-61920D01*
X77090Y-62385D02*
X76625Y-61920D01*
G54D25*
X82870Y-45405D02*
X82530Y-45405D01*
X82527Y-44438D02*
X82527Y-43870D01*
X82425Y-44540D02*
X82527Y-44438D01*
X82425Y-45300D02*
X82425Y-44540D01*
X82530Y-45405D02*
X82425Y-45300D01*
G54D23*
X83635Y-45405D02*
X83635Y-44720D01*
X83429Y-44514D02*
X83429Y-43870D01*
X83635Y-44720D02*
X83429Y-44514D01*
G54D24*
X83835Y-47200D02*
X82665Y-47200D01*
X85005Y-47200D02*
X83835Y-47200D01*
X82527Y-43870D02*
X83429Y-43870D01*
X81626Y-43870D02*
X82527Y-43870D01*
G54D23*
X81126Y-43370D02*
X80323Y-43370D01*
X81626Y-43870D02*
X81126Y-43370D01*
X80323Y-43370D02*
X79823Y-43870D01*
X79823Y-43870D02*
X79823Y-43867D01*
G54D10*
G36*
X106160Y-68760D02*
X105502Y-68760D01*
X105502Y-64640D01*
X105488Y-64427D01*
X105434Y-64297D01*
X105344Y-64268D01*
X105261Y-64351D01*
X105261Y-64185D01*
X105232Y-64095D01*
X105042Y-64031D01*
X105042Y-59570D01*
X105028Y-59357D01*
X104974Y-59227D01*
X104920Y-59210D01*
X104920Y-56416D01*
X104856Y-56262D01*
X104738Y-56144D01*
X104583Y-56080D01*
X104416Y-56079D01*
X104262Y-56143D01*
X104144Y-56261D01*
X104080Y-56416D01*
X104079Y-56583D01*
X104143Y-56737D01*
X104261Y-56855D01*
X104416Y-56919D01*
X104583Y-56920D01*
X104737Y-56856D01*
X104855Y-56738D01*
X104919Y-56583D01*
X104920Y-56416D01*
X104920Y-59210D01*
X104920Y-59210D01*
X104920Y-58776D01*
X104920Y-58176D01*
X104920Y-57776D01*
X104920Y-57176D01*
X104901Y-57132D01*
X104868Y-57098D01*
X104823Y-57080D01*
X104776Y-57079D01*
X104176Y-57079D01*
X104132Y-57098D01*
X104098Y-57131D01*
X104080Y-57176D01*
X104079Y-57223D01*
X104079Y-57823D01*
X104098Y-57867D01*
X104131Y-57901D01*
X104176Y-57919D01*
X104223Y-57920D01*
X104823Y-57920D01*
X104867Y-57901D01*
X104901Y-57868D01*
X104919Y-57823D01*
X104920Y-57776D01*
X104920Y-58176D01*
X104901Y-58132D01*
X104868Y-58098D01*
X104823Y-58080D01*
X104776Y-58079D01*
X104176Y-58079D01*
X104132Y-58098D01*
X104098Y-58131D01*
X104080Y-58176D01*
X104079Y-58223D01*
X104079Y-58823D01*
X104098Y-58867D01*
X104131Y-58901D01*
X104176Y-58919D01*
X104223Y-58920D01*
X104823Y-58920D01*
X104867Y-58901D01*
X104901Y-58868D01*
X104919Y-58823D01*
X104920Y-58776D01*
X104920Y-59210D01*
X104884Y-59198D01*
X104801Y-59281D01*
X104801Y-59115D01*
X104772Y-59025D01*
X104570Y-58957D01*
X104357Y-58971D01*
X104227Y-59025D01*
X104198Y-59115D01*
X104500Y-59417D01*
X104801Y-59115D01*
X104801Y-59281D01*
X104582Y-59500D01*
X104884Y-59801D01*
X104974Y-59772D01*
X105042Y-59570D01*
X105042Y-64031D01*
X105030Y-64027D01*
X104817Y-64041D01*
X104801Y-64048D01*
X104801Y-59884D01*
X104500Y-59582D01*
X104417Y-59665D01*
X104417Y-59500D01*
X104115Y-59198D01*
X104025Y-59227D01*
X103957Y-59429D01*
X103971Y-59642D01*
X104025Y-59772D01*
X104115Y-59801D01*
X104417Y-59500D01*
X104417Y-59665D01*
X104198Y-59884D01*
X104227Y-59974D01*
X104429Y-60042D01*
X104642Y-60028D01*
X104772Y-59974D01*
X104801Y-59884D01*
X104801Y-64048D01*
X104687Y-64095D01*
X104658Y-64185D01*
X104960Y-64487D01*
X105261Y-64185D01*
X105261Y-64351D01*
X105042Y-64570D01*
X105344Y-64871D01*
X105434Y-64842D01*
X105502Y-64640D01*
X105502Y-68760D01*
X105261Y-68760D01*
X105261Y-64954D01*
X104960Y-64652D01*
X104877Y-64735D01*
X104877Y-64570D01*
X104575Y-64268D01*
X104485Y-64297D01*
X104417Y-64499D01*
X104431Y-64712D01*
X104485Y-64842D01*
X104575Y-64871D01*
X104877Y-64570D01*
X104877Y-64735D01*
X104658Y-64954D01*
X104687Y-65044D01*
X104889Y-65112D01*
X105102Y-65098D01*
X105232Y-65044D01*
X105261Y-64954D01*
X105261Y-68760D01*
X103920Y-68760D01*
X103920Y-58416D01*
X103920Y-57416D01*
X103856Y-57262D01*
X103738Y-57144D01*
X103583Y-57080D01*
X103416Y-57079D01*
X103262Y-57143D01*
X103144Y-57261D01*
X103080Y-57416D01*
X103079Y-57583D01*
X103143Y-57737D01*
X103261Y-57855D01*
X103416Y-57919D01*
X103583Y-57920D01*
X103737Y-57856D01*
X103855Y-57738D01*
X103919Y-57583D01*
X103920Y-57416D01*
X103920Y-58416D01*
X103856Y-58262D01*
X103738Y-58144D01*
X103583Y-58080D01*
X103416Y-58079D01*
X103262Y-58143D01*
X103144Y-58261D01*
X103080Y-58416D01*
X103079Y-58583D01*
X103143Y-58737D01*
X103261Y-58855D01*
X103416Y-58919D01*
X103583Y-58920D01*
X103737Y-58856D01*
X103855Y-58738D01*
X103919Y-58583D01*
X103920Y-58416D01*
X103920Y-68760D01*
X102272Y-68760D01*
X102272Y-64657D01*
X102258Y-64422D01*
X102194Y-64268D01*
X102098Y-64233D01*
X102015Y-64315D01*
X102015Y-64150D01*
X101980Y-64054D01*
X101758Y-63976D01*
X101570Y-63987D01*
X101570Y-52722D01*
X101570Y-42722D01*
X101437Y-42402D01*
X101193Y-42157D01*
X100873Y-42025D01*
X100527Y-42024D01*
X100207Y-42157D01*
X99962Y-42401D01*
X99830Y-42721D01*
X99829Y-43067D01*
X99962Y-43387D01*
X100206Y-43632D01*
X100526Y-43764D01*
X100872Y-43765D01*
X101192Y-43632D01*
X101437Y-43388D01*
X101569Y-43068D01*
X101570Y-42722D01*
X101570Y-52722D01*
X101437Y-52402D01*
X101193Y-52157D01*
X101120Y-52127D01*
X101120Y-49411D01*
X101120Y-48311D01*
X101120Y-47261D01*
X101120Y-46161D01*
X101056Y-46007D01*
X100938Y-45889D01*
X100783Y-45825D01*
X100616Y-45824D01*
X100462Y-45888D01*
X100344Y-46006D01*
X100280Y-46161D01*
X100279Y-46328D01*
X100343Y-46482D01*
X100461Y-46600D01*
X100616Y-46664D01*
X100783Y-46665D01*
X100937Y-46601D01*
X101055Y-46483D01*
X101119Y-46328D01*
X101120Y-46161D01*
X101120Y-47261D01*
X101056Y-47107D01*
X100938Y-46989D01*
X100783Y-46925D01*
X100616Y-46924D01*
X100462Y-46988D01*
X100344Y-47106D01*
X100280Y-47261D01*
X100279Y-47428D01*
X100343Y-47582D01*
X100461Y-47700D01*
X100616Y-47764D01*
X100783Y-47765D01*
X100937Y-47701D01*
X101055Y-47583D01*
X101119Y-47428D01*
X101120Y-47261D01*
X101120Y-48311D01*
X101056Y-48157D01*
X100938Y-48039D01*
X100783Y-47975D01*
X100616Y-47974D01*
X100462Y-48038D01*
X100344Y-48156D01*
X100280Y-48311D01*
X100279Y-48478D01*
X100343Y-48632D01*
X100461Y-48750D01*
X100616Y-48814D01*
X100783Y-48815D01*
X100937Y-48751D01*
X101055Y-48633D01*
X101119Y-48478D01*
X101120Y-48311D01*
X101120Y-49411D01*
X101056Y-49257D01*
X100938Y-49139D01*
X100783Y-49075D01*
X100616Y-49074D01*
X100462Y-49138D01*
X100344Y-49256D01*
X100280Y-49411D01*
X100279Y-49578D01*
X100343Y-49732D01*
X100461Y-49850D01*
X100616Y-49914D01*
X100783Y-49915D01*
X100937Y-49851D01*
X101055Y-49733D01*
X101119Y-49578D01*
X101120Y-49411D01*
X101120Y-52127D01*
X100873Y-52025D01*
X100527Y-52024D01*
X100242Y-52142D01*
X100242Y-50115D01*
X100228Y-49902D01*
X100174Y-49772D01*
X100120Y-49755D01*
X100120Y-48861D01*
X100120Y-47761D01*
X100120Y-46711D01*
X100120Y-46711D01*
X100120Y-45971D01*
X100120Y-45371D01*
X100101Y-45327D01*
X100068Y-45293D01*
X100023Y-45275D01*
X99976Y-45274D01*
X99376Y-45274D01*
X99332Y-45293D01*
X99298Y-45326D01*
X99280Y-45371D01*
X99279Y-45418D01*
X99279Y-46018D01*
X99298Y-46062D01*
X99331Y-46096D01*
X99376Y-46114D01*
X99423Y-46115D01*
X100023Y-46115D01*
X100067Y-46096D01*
X100101Y-46063D01*
X100119Y-46018D01*
X100120Y-45971D01*
X100120Y-46711D01*
X100056Y-46557D01*
X99938Y-46439D01*
X99783Y-46375D01*
X99616Y-46374D01*
X99462Y-46438D01*
X99344Y-46556D01*
X99280Y-46711D01*
X99279Y-46878D01*
X99343Y-47032D01*
X99461Y-47150D01*
X99616Y-47214D01*
X99783Y-47215D01*
X99937Y-47151D01*
X100055Y-47033D01*
X100119Y-46878D01*
X100120Y-46711D01*
X100120Y-47761D01*
X100056Y-47607D01*
X99938Y-47489D01*
X99783Y-47425D01*
X99616Y-47424D01*
X99462Y-47488D01*
X99344Y-47606D01*
X99280Y-47761D01*
X99279Y-47928D01*
X99343Y-48082D01*
X99461Y-48200D01*
X99616Y-48264D01*
X99783Y-48265D01*
X99937Y-48201D01*
X100055Y-48083D01*
X100119Y-47928D01*
X100120Y-47761D01*
X100120Y-48861D01*
X100056Y-48707D01*
X99938Y-48589D01*
X99783Y-48525D01*
X99616Y-48524D01*
X99462Y-48588D01*
X99344Y-48706D01*
X99280Y-48861D01*
X99279Y-49028D01*
X99343Y-49182D01*
X99461Y-49300D01*
X99616Y-49364D01*
X99783Y-49365D01*
X99937Y-49301D01*
X100055Y-49183D01*
X100119Y-49028D01*
X100120Y-48861D01*
X100120Y-49755D01*
X100084Y-49743D01*
X100001Y-49826D01*
X100001Y-49660D01*
X99972Y-49570D01*
X99770Y-49502D01*
X99557Y-49516D01*
X99427Y-49570D01*
X99398Y-49660D01*
X99700Y-49962D01*
X100001Y-49660D01*
X100001Y-49826D01*
X99782Y-50045D01*
X100084Y-50346D01*
X100174Y-50317D01*
X100242Y-50115D01*
X100242Y-52142D01*
X100207Y-52157D01*
X100001Y-52363D01*
X100001Y-50429D01*
X99700Y-50127D01*
X99617Y-50210D01*
X99617Y-50045D01*
X99315Y-49743D01*
X99225Y-49772D01*
X99157Y-49974D01*
X99171Y-50187D01*
X99225Y-50317D01*
X99315Y-50346D01*
X99617Y-50045D01*
X99617Y-50210D01*
X99398Y-50429D01*
X99427Y-50519D01*
X99629Y-50587D01*
X99842Y-50573D01*
X99972Y-50519D01*
X100001Y-50429D01*
X100001Y-52363D01*
X99962Y-52401D01*
X99830Y-52721D01*
X99829Y-53067D01*
X99962Y-53387D01*
X100206Y-53632D01*
X100526Y-53764D01*
X100872Y-53765D01*
X101192Y-53632D01*
X101437Y-53388D01*
X101569Y-53068D01*
X101570Y-52722D01*
X101570Y-63987D01*
X101523Y-63990D01*
X101369Y-64054D01*
X101334Y-64150D01*
X101675Y-64491D01*
X102015Y-64150D01*
X102015Y-64315D01*
X101757Y-64574D01*
X102098Y-64914D01*
X102194Y-64879D01*
X102272Y-64657D01*
X102272Y-68760D01*
X102149Y-68760D01*
X102149Y-66252D01*
X102077Y-66077D01*
X102015Y-66015D01*
X102015Y-64997D01*
X101675Y-64656D01*
X101592Y-64739D01*
X101592Y-64574D01*
X101251Y-64233D01*
X101155Y-64268D01*
X101077Y-64490D01*
X101091Y-64725D01*
X101155Y-64879D01*
X101251Y-64914D01*
X101592Y-64574D01*
X101592Y-64739D01*
X101334Y-64997D01*
X101369Y-65093D01*
X101591Y-65171D01*
X101826Y-65157D01*
X101980Y-65093D01*
X102015Y-64997D01*
X102015Y-66015D01*
X101944Y-65943D01*
X101769Y-65871D01*
X101581Y-65871D01*
X101406Y-65943D01*
X101272Y-66076D01*
X101200Y-66251D01*
X101200Y-66439D01*
X101272Y-66614D01*
X101405Y-66748D01*
X101580Y-66820D01*
X101768Y-66820D01*
X101943Y-66748D01*
X102077Y-66615D01*
X102149Y-66440D01*
X102149Y-66252D01*
X102149Y-68760D01*
X99712Y-68760D01*
X99712Y-64657D01*
X99698Y-64422D01*
X99634Y-64268D01*
X99538Y-64233D01*
X99455Y-64315D01*
X99455Y-64150D01*
X99420Y-64054D01*
X99240Y-63991D01*
X99240Y-51592D01*
X99203Y-51504D01*
X99136Y-51436D01*
X99047Y-51400D01*
X98952Y-51399D01*
X98864Y-51436D01*
X98860Y-51440D01*
X97408Y-51440D01*
X97408Y-41276D01*
X97408Y-40173D01*
X97390Y-40129D01*
X97356Y-40096D01*
X97312Y-40077D01*
X97264Y-40077D01*
X96792Y-40077D01*
X96748Y-40095D01*
X96714Y-40129D01*
X96696Y-40173D01*
X96696Y-40221D01*
X96696Y-41323D01*
X96714Y-41367D01*
X96748Y-41401D01*
X96792Y-41420D01*
X96840Y-41420D01*
X97312Y-41420D01*
X97356Y-41401D01*
X97390Y-41368D01*
X97408Y-41324D01*
X97408Y-41276D01*
X97408Y-51440D01*
X97047Y-51440D01*
X97014Y-51359D01*
X96875Y-51220D01*
X96693Y-51145D01*
X96496Y-51144D01*
X96314Y-51220D01*
X96175Y-51359D01*
X96153Y-51412D01*
X96153Y-42831D01*
X96153Y-41846D01*
X96089Y-41692D01*
X95971Y-41574D01*
X95817Y-41510D01*
X95650Y-41509D01*
X95495Y-41573D01*
X95377Y-41691D01*
X95320Y-41830D01*
X95263Y-41692D01*
X95145Y-41574D01*
X95066Y-41541D01*
X95066Y-40646D01*
X95066Y-40173D01*
X95047Y-40129D01*
X95014Y-40096D01*
X94970Y-40077D01*
X94922Y-40077D01*
X93820Y-40077D01*
X93775Y-40095D01*
X93742Y-40129D01*
X93723Y-40173D01*
X93723Y-40221D01*
X93723Y-40693D01*
X93742Y-40738D01*
X93775Y-40771D01*
X93819Y-40790D01*
X93867Y-40790D01*
X94969Y-40790D01*
X95014Y-40771D01*
X95047Y-40738D01*
X95066Y-40694D01*
X95066Y-40646D01*
X95066Y-41541D01*
X94990Y-41510D01*
X94823Y-41509D01*
X94669Y-41573D01*
X94550Y-41691D01*
X94486Y-41846D01*
X94486Y-42013D01*
X94550Y-42167D01*
X94668Y-42285D01*
X94822Y-42349D01*
X94989Y-42350D01*
X95144Y-42286D01*
X95262Y-42168D01*
X95320Y-42029D01*
X95377Y-42167D01*
X95495Y-42285D01*
X95649Y-42349D01*
X95816Y-42350D01*
X95971Y-42286D01*
X96089Y-42168D01*
X96153Y-42013D01*
X96153Y-41846D01*
X96153Y-42831D01*
X96089Y-42676D01*
X95971Y-42558D01*
X95817Y-42494D01*
X95650Y-42494D01*
X95495Y-42557D01*
X95377Y-42676D01*
X95313Y-42830D01*
X95313Y-42997D01*
X95377Y-43151D01*
X95495Y-43270D01*
X95649Y-43334D01*
X95816Y-43334D01*
X95971Y-43270D01*
X96089Y-43152D01*
X96153Y-42998D01*
X96153Y-42831D01*
X96153Y-51412D01*
X96100Y-51541D01*
X96099Y-51738D01*
X96175Y-51920D01*
X96314Y-52059D01*
X96496Y-52134D01*
X96693Y-52135D01*
X96875Y-52059D01*
X97014Y-51920D01*
X97047Y-51840D01*
X98860Y-51840D01*
X98863Y-51843D01*
X98952Y-51879D01*
X99047Y-51880D01*
X99135Y-51843D01*
X99203Y-51776D01*
X99239Y-51687D01*
X99240Y-51592D01*
X99240Y-63991D01*
X99198Y-63976D01*
X98963Y-63990D01*
X98809Y-64054D01*
X98774Y-64150D01*
X99115Y-64491D01*
X99455Y-64150D01*
X99455Y-64315D01*
X99197Y-64574D01*
X99538Y-64914D01*
X99634Y-64879D01*
X99712Y-64657D01*
X99712Y-68760D01*
X99589Y-68760D01*
X99589Y-66252D01*
X99517Y-66077D01*
X99455Y-66015D01*
X99455Y-64997D01*
X99115Y-64656D01*
X99032Y-64739D01*
X99032Y-64574D01*
X98691Y-64233D01*
X98595Y-64268D01*
X98517Y-64490D01*
X98531Y-64725D01*
X98595Y-64879D01*
X98691Y-64914D01*
X99032Y-64574D01*
X99032Y-64739D01*
X98774Y-64997D01*
X98809Y-65093D01*
X99031Y-65171D01*
X99266Y-65157D01*
X99420Y-65093D01*
X99455Y-64997D01*
X99455Y-66015D01*
X99384Y-65943D01*
X99209Y-65871D01*
X99021Y-65871D01*
X98846Y-65943D01*
X98712Y-66076D01*
X98640Y-66251D01*
X98640Y-66439D01*
X98712Y-66614D01*
X98845Y-66748D01*
X99020Y-66820D01*
X99208Y-66820D01*
X99383Y-66748D01*
X99517Y-66615D01*
X99589Y-66440D01*
X99589Y-66252D01*
X99589Y-68760D01*
X97547Y-68760D01*
X97547Y-64657D01*
X97533Y-64422D01*
X97469Y-64268D01*
X97373Y-64233D01*
X97290Y-64315D01*
X97290Y-64150D01*
X97255Y-64054D01*
X97212Y-64039D01*
X97212Y-60728D01*
X97199Y-60485D01*
X97131Y-60322D01*
X97033Y-60284D01*
X96950Y-60366D01*
X96950Y-60201D01*
X96912Y-60103D01*
X96683Y-60022D01*
X96440Y-60035D01*
X96277Y-60103D01*
X96239Y-60201D01*
X96595Y-60557D01*
X96950Y-60201D01*
X96950Y-60366D01*
X96677Y-60640D01*
X97033Y-60995D01*
X97131Y-60957D01*
X97212Y-60728D01*
X97212Y-64039D01*
X97033Y-63976D01*
X96950Y-63981D01*
X96950Y-61078D01*
X96595Y-60722D01*
X96512Y-60805D01*
X96512Y-60640D01*
X96156Y-60284D01*
X96090Y-60309D01*
X96090Y-51541D01*
X96014Y-51359D01*
X95875Y-51220D01*
X95693Y-51145D01*
X95496Y-51144D01*
X95314Y-51220D01*
X95175Y-51359D01*
X95100Y-51541D01*
X95099Y-51738D01*
X95175Y-51920D01*
X95314Y-52059D01*
X95496Y-52134D01*
X95693Y-52135D01*
X95875Y-52059D01*
X96014Y-51920D01*
X96089Y-51738D01*
X96090Y-51541D01*
X96090Y-60309D01*
X96058Y-60322D01*
X96031Y-60399D01*
X96014Y-60359D01*
X95875Y-60220D01*
X95693Y-60145D01*
X95496Y-60144D01*
X95314Y-60220D01*
X95175Y-60359D01*
X95100Y-60541D01*
X95099Y-60738D01*
X95175Y-60920D01*
X95314Y-61059D01*
X95496Y-61134D01*
X95693Y-61135D01*
X95875Y-61059D01*
X96014Y-60920D01*
X96028Y-60886D01*
X96058Y-60957D01*
X96156Y-60995D01*
X96512Y-60640D01*
X96512Y-60805D01*
X96239Y-61078D01*
X96277Y-61176D01*
X96506Y-61257D01*
X96749Y-61244D01*
X96912Y-61176D01*
X96950Y-61078D01*
X96950Y-63981D01*
X96798Y-63990D01*
X96644Y-64054D01*
X96609Y-64150D01*
X96950Y-64491D01*
X97290Y-64150D01*
X97290Y-64315D01*
X97032Y-64574D01*
X97373Y-64914D01*
X97469Y-64879D01*
X97547Y-64657D01*
X97547Y-68760D01*
X97424Y-68760D01*
X97424Y-66252D01*
X97352Y-66077D01*
X97290Y-66015D01*
X97290Y-64997D01*
X96950Y-64656D01*
X96867Y-64739D01*
X96867Y-64574D01*
X96526Y-64233D01*
X96430Y-64268D01*
X96352Y-64490D01*
X96366Y-64725D01*
X96430Y-64879D01*
X96526Y-64914D01*
X96867Y-64574D01*
X96867Y-64739D01*
X96609Y-64997D01*
X96644Y-65093D01*
X96866Y-65171D01*
X97101Y-65157D01*
X97255Y-65093D01*
X97290Y-64997D01*
X97290Y-66015D01*
X97219Y-65943D01*
X97044Y-65871D01*
X96856Y-65871D01*
X96681Y-65943D01*
X96547Y-66076D01*
X96475Y-66251D01*
X96475Y-66439D01*
X96547Y-66614D01*
X96680Y-66748D01*
X96855Y-66820D01*
X97043Y-66820D01*
X97218Y-66748D01*
X97352Y-66615D01*
X97424Y-66440D01*
X97424Y-66252D01*
X97424Y-68760D01*
X95090Y-68760D01*
X95090Y-60541D01*
X95090Y-51541D01*
X95014Y-51359D01*
X94875Y-51220D01*
X94693Y-51145D01*
X94496Y-51144D01*
X94314Y-51220D01*
X94303Y-51231D01*
X94303Y-41846D01*
X94239Y-41692D01*
X94121Y-41574D01*
X93967Y-41510D01*
X93800Y-41509D01*
X93645Y-41573D01*
X93540Y-41679D01*
X93531Y-41657D01*
X93440Y-41628D01*
X93357Y-41711D01*
X93357Y-41545D01*
X93329Y-41455D01*
X93126Y-41387D01*
X92913Y-41401D01*
X92783Y-41455D01*
X92755Y-41545D01*
X93056Y-41847D01*
X93357Y-41545D01*
X93357Y-41711D01*
X93139Y-41930D01*
X93440Y-42231D01*
X93531Y-42202D01*
X93538Y-42179D01*
X93644Y-42285D01*
X93799Y-42349D01*
X93966Y-42350D01*
X94120Y-42286D01*
X94239Y-42168D01*
X94303Y-42013D01*
X94303Y-41846D01*
X94303Y-51231D01*
X94175Y-51359D01*
X94100Y-51541D01*
X94099Y-51738D01*
X94175Y-51920D01*
X94314Y-52059D01*
X94496Y-52134D01*
X94693Y-52135D01*
X94875Y-52059D01*
X95014Y-51920D01*
X95089Y-51738D01*
X95090Y-51541D01*
X95090Y-60541D01*
X95014Y-60359D01*
X94875Y-60220D01*
X94693Y-60145D01*
X94496Y-60144D01*
X94314Y-60220D01*
X94175Y-60359D01*
X94100Y-60541D01*
X94099Y-60738D01*
X94175Y-60920D01*
X94314Y-61059D01*
X94496Y-61134D01*
X94693Y-61135D01*
X94875Y-61059D01*
X95014Y-60920D01*
X95089Y-60738D01*
X95090Y-60541D01*
X95090Y-68760D01*
X94987Y-68760D01*
X94987Y-64657D01*
X94973Y-64422D01*
X94909Y-64268D01*
X94813Y-64233D01*
X94730Y-64315D01*
X94730Y-64150D01*
X94695Y-64054D01*
X94473Y-63976D01*
X94238Y-63990D01*
X94090Y-64051D01*
X94090Y-60541D01*
X94090Y-51541D01*
X94014Y-51359D01*
X93875Y-51220D01*
X93693Y-51145D01*
X93496Y-51144D01*
X93476Y-51153D01*
X93476Y-42831D01*
X93412Y-42676D01*
X93357Y-42621D01*
X93357Y-42314D01*
X93056Y-42012D01*
X92973Y-42095D01*
X92973Y-41930D01*
X92672Y-41628D01*
X92581Y-41657D01*
X92513Y-41859D01*
X92528Y-42072D01*
X92581Y-42202D01*
X92672Y-42231D01*
X92973Y-41930D01*
X92973Y-42095D01*
X92755Y-42314D01*
X92783Y-42404D01*
X92986Y-42472D01*
X93199Y-42458D01*
X93329Y-42404D01*
X93357Y-42314D01*
X93357Y-42621D01*
X93294Y-42558D01*
X93140Y-42494D01*
X92973Y-42494D01*
X92818Y-42557D01*
X92700Y-42676D01*
X92636Y-42830D01*
X92636Y-42997D01*
X92700Y-43151D01*
X92818Y-43270D01*
X92972Y-43334D01*
X93139Y-43334D01*
X93294Y-43270D01*
X93412Y-43152D01*
X93476Y-42998D01*
X93476Y-42831D01*
X93476Y-51153D01*
X93314Y-51220D01*
X93175Y-51359D01*
X93100Y-51541D01*
X93099Y-51738D01*
X93175Y-51920D01*
X93314Y-52059D01*
X93496Y-52134D01*
X93693Y-52135D01*
X93875Y-52059D01*
X94014Y-51920D01*
X94089Y-51738D01*
X94090Y-51541D01*
X94090Y-60541D01*
X94014Y-60359D01*
X93875Y-60220D01*
X93693Y-60145D01*
X93496Y-60144D01*
X93314Y-60220D01*
X93175Y-60359D01*
X93100Y-60541D01*
X93099Y-60738D01*
X93175Y-60920D01*
X93314Y-61059D01*
X93496Y-61134D01*
X93693Y-61135D01*
X93875Y-61059D01*
X94014Y-60920D01*
X94089Y-60738D01*
X94090Y-60541D01*
X94090Y-64051D01*
X94084Y-64054D01*
X94049Y-64150D01*
X94390Y-64491D01*
X94730Y-64150D01*
X94730Y-64315D01*
X94472Y-64574D01*
X94813Y-64914D01*
X94909Y-64879D01*
X94987Y-64657D01*
X94987Y-68760D01*
X94864Y-68760D01*
X94864Y-66252D01*
X94792Y-66077D01*
X94730Y-66015D01*
X94730Y-64997D01*
X94390Y-64656D01*
X94307Y-64739D01*
X94307Y-64574D01*
X93966Y-64233D01*
X93870Y-64268D01*
X93792Y-64490D01*
X93806Y-64725D01*
X93870Y-64879D01*
X93966Y-64914D01*
X94307Y-64574D01*
X94307Y-64739D01*
X94049Y-64997D01*
X94084Y-65093D01*
X94306Y-65171D01*
X94541Y-65157D01*
X94695Y-65093D01*
X94730Y-64997D01*
X94730Y-66015D01*
X94659Y-65943D01*
X94484Y-65871D01*
X94296Y-65871D01*
X94121Y-65943D01*
X93987Y-66076D01*
X93915Y-66251D01*
X93915Y-66439D01*
X93987Y-66614D01*
X94120Y-66748D01*
X94295Y-66820D01*
X94483Y-66820D01*
X94658Y-66748D01*
X94792Y-66615D01*
X94864Y-66440D01*
X94864Y-66252D01*
X94864Y-68760D01*
X93090Y-68760D01*
X93090Y-60541D01*
X93090Y-51541D01*
X93014Y-51359D01*
X92875Y-51220D01*
X92693Y-51145D01*
X92496Y-51144D01*
X92314Y-51220D01*
X92175Y-51359D01*
X92161Y-51393D01*
X92131Y-51322D01*
X92093Y-51307D01*
X92093Y-41276D01*
X92093Y-40173D01*
X92075Y-40129D01*
X92041Y-40096D01*
X91997Y-40077D01*
X91949Y-40077D01*
X91477Y-40077D01*
X91433Y-40095D01*
X91399Y-40129D01*
X91381Y-40173D01*
X91381Y-40221D01*
X91381Y-41323D01*
X91399Y-41367D01*
X91433Y-41401D01*
X91477Y-41420D01*
X91525Y-41420D01*
X91997Y-41420D01*
X92041Y-41401D01*
X92075Y-41368D01*
X92093Y-41324D01*
X92093Y-41276D01*
X92093Y-51307D01*
X92033Y-51284D01*
X91950Y-51366D01*
X91950Y-51201D01*
X91912Y-51103D01*
X91683Y-51022D01*
X91440Y-51035D01*
X91277Y-51103D01*
X91239Y-51201D01*
X91595Y-51557D01*
X91950Y-51201D01*
X91950Y-51366D01*
X91677Y-51640D01*
X92033Y-51995D01*
X92131Y-51957D01*
X92158Y-51880D01*
X92175Y-51920D01*
X92314Y-52059D01*
X92496Y-52134D01*
X92693Y-52135D01*
X92875Y-52059D01*
X93014Y-51920D01*
X93089Y-51738D01*
X93090Y-51541D01*
X93090Y-60541D01*
X93014Y-60359D01*
X92875Y-60220D01*
X92693Y-60145D01*
X92496Y-60144D01*
X92314Y-60220D01*
X92175Y-60359D01*
X92100Y-60541D01*
X92099Y-60738D01*
X92175Y-60920D01*
X92314Y-61059D01*
X92496Y-61134D01*
X92693Y-61135D01*
X92875Y-61059D01*
X93014Y-60920D01*
X93089Y-60738D01*
X93090Y-60541D01*
X93090Y-68760D01*
X92822Y-68760D01*
X92822Y-64657D01*
X92808Y-64422D01*
X92744Y-64268D01*
X92648Y-64233D01*
X92565Y-64315D01*
X92565Y-64150D01*
X92530Y-64054D01*
X92308Y-63976D01*
X92090Y-63989D01*
X92090Y-60541D01*
X92014Y-60359D01*
X91950Y-60295D01*
X91950Y-52078D01*
X91595Y-51722D01*
X91512Y-51805D01*
X91512Y-51640D01*
X91156Y-51284D01*
X91058Y-51322D01*
X91031Y-51399D01*
X91014Y-51359D01*
X90875Y-51220D01*
X90693Y-51145D01*
X90496Y-51144D01*
X90314Y-51220D01*
X90175Y-51359D01*
X90100Y-51541D01*
X90099Y-51738D01*
X90175Y-51920D01*
X90314Y-52059D01*
X90496Y-52134D01*
X90693Y-52135D01*
X90875Y-52059D01*
X91014Y-51920D01*
X91028Y-51886D01*
X91058Y-51957D01*
X91156Y-51995D01*
X91512Y-51640D01*
X91512Y-51805D01*
X91239Y-52078D01*
X91277Y-52176D01*
X91506Y-52257D01*
X91749Y-52244D01*
X91912Y-52176D01*
X91950Y-52078D01*
X91950Y-60295D01*
X91875Y-60220D01*
X91693Y-60145D01*
X91496Y-60144D01*
X91314Y-60220D01*
X91175Y-60359D01*
X91100Y-60541D01*
X91099Y-60738D01*
X91175Y-60920D01*
X91314Y-61059D01*
X91496Y-61134D01*
X91693Y-61135D01*
X91875Y-61059D01*
X92014Y-60920D01*
X92089Y-60738D01*
X92090Y-60541D01*
X92090Y-63989D01*
X92073Y-63990D01*
X91919Y-64054D01*
X91884Y-64150D01*
X92225Y-64491D01*
X92565Y-64150D01*
X92565Y-64315D01*
X92307Y-64574D01*
X92648Y-64914D01*
X92744Y-64879D01*
X92822Y-64657D01*
X92822Y-68760D01*
X92699Y-68760D01*
X92699Y-66252D01*
X92627Y-66077D01*
X92565Y-66015D01*
X92565Y-64997D01*
X92225Y-64656D01*
X92142Y-64739D01*
X92142Y-64574D01*
X91801Y-64233D01*
X91705Y-64268D01*
X91627Y-64490D01*
X91641Y-64725D01*
X91705Y-64879D01*
X91801Y-64914D01*
X92142Y-64574D01*
X92142Y-64739D01*
X91884Y-64997D01*
X91919Y-65093D01*
X92141Y-65171D01*
X92376Y-65157D01*
X92530Y-65093D01*
X92565Y-64997D01*
X92565Y-66015D01*
X92494Y-65943D01*
X92319Y-65871D01*
X92131Y-65871D01*
X91956Y-65943D01*
X91822Y-66076D01*
X91750Y-66251D01*
X91750Y-66439D01*
X91822Y-66614D01*
X91955Y-66748D01*
X92130Y-66820D01*
X92318Y-66820D01*
X92493Y-66748D01*
X92627Y-66615D01*
X92699Y-66440D01*
X92699Y-66252D01*
X92699Y-68760D01*
X91090Y-68760D01*
X91090Y-60541D01*
X91014Y-60359D01*
X90875Y-60220D01*
X90693Y-60145D01*
X90496Y-60144D01*
X90314Y-60220D01*
X90175Y-60359D01*
X90100Y-60541D01*
X90099Y-60738D01*
X90175Y-60920D01*
X90314Y-61059D01*
X90496Y-61134D01*
X90693Y-61135D01*
X90875Y-61059D01*
X91014Y-60920D01*
X91089Y-60738D01*
X91090Y-60541D01*
X91090Y-68760D01*
X90262Y-68760D01*
X90262Y-64657D01*
X90248Y-64422D01*
X90184Y-64268D01*
X90090Y-64233D01*
X90090Y-60541D01*
X90090Y-51541D01*
X90014Y-51359D01*
X89875Y-51220D01*
X89693Y-51145D01*
X89496Y-51144D01*
X89314Y-51220D01*
X89175Y-51359D01*
X89100Y-51541D01*
X89099Y-51738D01*
X89175Y-51920D01*
X89314Y-52059D01*
X89496Y-52134D01*
X89693Y-52135D01*
X89875Y-52059D01*
X90014Y-51920D01*
X90089Y-51738D01*
X90090Y-51541D01*
X90090Y-60541D01*
X90014Y-60359D01*
X89875Y-60220D01*
X89693Y-60145D01*
X89496Y-60144D01*
X89314Y-60220D01*
X89175Y-60359D01*
X89100Y-60541D01*
X89099Y-60738D01*
X89175Y-60920D01*
X89314Y-61059D01*
X89496Y-61134D01*
X89693Y-61135D01*
X89875Y-61059D01*
X90014Y-60920D01*
X90089Y-60738D01*
X90090Y-60541D01*
X90090Y-64233D01*
X90088Y-64233D01*
X90005Y-64315D01*
X90005Y-64150D01*
X89970Y-64054D01*
X89748Y-63976D01*
X89513Y-63990D01*
X89359Y-64054D01*
X89324Y-64150D01*
X89665Y-64491D01*
X90005Y-64150D01*
X90005Y-64315D01*
X89747Y-64574D01*
X90088Y-64914D01*
X90184Y-64879D01*
X90262Y-64657D01*
X90262Y-68760D01*
X90139Y-68760D01*
X90139Y-66252D01*
X90067Y-66077D01*
X90005Y-66015D01*
X90005Y-64997D01*
X89665Y-64656D01*
X89582Y-64739D01*
X89582Y-64574D01*
X89241Y-64233D01*
X89145Y-64268D01*
X89090Y-64426D01*
X89090Y-60541D01*
X89090Y-51541D01*
X89014Y-51359D01*
X88875Y-51220D01*
X88693Y-51145D01*
X88496Y-51144D01*
X88314Y-51220D01*
X88175Y-51359D01*
X88100Y-51541D01*
X88099Y-51738D01*
X88175Y-51920D01*
X88314Y-52059D01*
X88496Y-52134D01*
X88693Y-52135D01*
X88875Y-52059D01*
X89014Y-51920D01*
X89089Y-51738D01*
X89090Y-51541D01*
X89090Y-60541D01*
X89014Y-60359D01*
X88875Y-60220D01*
X88693Y-60145D01*
X88496Y-60144D01*
X88314Y-60220D01*
X88175Y-60359D01*
X88100Y-60541D01*
X88099Y-60738D01*
X88175Y-60920D01*
X88314Y-61059D01*
X88496Y-61134D01*
X88693Y-61135D01*
X88875Y-61059D01*
X89014Y-60920D01*
X89089Y-60738D01*
X89090Y-60541D01*
X89090Y-64426D01*
X89067Y-64490D01*
X89081Y-64725D01*
X89145Y-64879D01*
X89241Y-64914D01*
X89582Y-64574D01*
X89582Y-64739D01*
X89324Y-64997D01*
X89359Y-65093D01*
X89581Y-65171D01*
X89816Y-65157D01*
X89970Y-65093D01*
X90005Y-64997D01*
X90005Y-66015D01*
X89934Y-65943D01*
X89759Y-65871D01*
X89571Y-65871D01*
X89396Y-65943D01*
X89262Y-66076D01*
X89190Y-66251D01*
X89190Y-66439D01*
X89262Y-66614D01*
X89395Y-66748D01*
X89570Y-66820D01*
X89758Y-66820D01*
X89933Y-66748D01*
X90067Y-66615D01*
X90139Y-66440D01*
X90139Y-66252D01*
X90139Y-68760D01*
X88097Y-68760D01*
X88097Y-64657D01*
X88090Y-64535D01*
X88090Y-60541D01*
X88090Y-51541D01*
X88014Y-51359D01*
X87875Y-51220D01*
X87693Y-51145D01*
X87496Y-51144D01*
X87314Y-51220D01*
X87175Y-51359D01*
X87100Y-51541D01*
X87099Y-51738D01*
X87175Y-51920D01*
X87314Y-52059D01*
X87496Y-52134D01*
X87693Y-52135D01*
X87875Y-52059D01*
X88014Y-51920D01*
X88089Y-51738D01*
X88090Y-51541D01*
X88090Y-60541D01*
X88014Y-60359D01*
X87875Y-60220D01*
X87693Y-60145D01*
X87496Y-60144D01*
X87314Y-60220D01*
X87175Y-60359D01*
X87100Y-60541D01*
X87099Y-60738D01*
X87175Y-60920D01*
X87314Y-61059D01*
X87496Y-61134D01*
X87693Y-61135D01*
X87875Y-61059D01*
X88014Y-60920D01*
X88089Y-60738D01*
X88090Y-60541D01*
X88090Y-64535D01*
X88083Y-64422D01*
X88019Y-64268D01*
X87923Y-64233D01*
X87840Y-64315D01*
X87840Y-64150D01*
X87805Y-64054D01*
X87583Y-63976D01*
X87348Y-63990D01*
X87194Y-64054D01*
X87159Y-64150D01*
X87500Y-64491D01*
X87840Y-64150D01*
X87840Y-64315D01*
X87582Y-64574D01*
X87923Y-64914D01*
X88019Y-64879D01*
X88097Y-64657D01*
X88097Y-68760D01*
X87974Y-68760D01*
X87974Y-66252D01*
X87902Y-66077D01*
X87840Y-66015D01*
X87840Y-64997D01*
X87500Y-64656D01*
X87417Y-64739D01*
X87417Y-64574D01*
X87090Y-64246D01*
X87090Y-60541D01*
X87090Y-51541D01*
X87014Y-51359D01*
X86875Y-51220D01*
X86836Y-51204D01*
X86836Y-43721D01*
X86722Y-43445D01*
X86511Y-43234D01*
X86235Y-43120D01*
X85937Y-43119D01*
X85661Y-43233D01*
X85450Y-43444D01*
X85336Y-43720D01*
X85335Y-44018D01*
X85449Y-44294D01*
X85660Y-44505D01*
X85936Y-44619D01*
X86234Y-44620D01*
X86510Y-44506D01*
X86721Y-44295D01*
X86835Y-44019D01*
X86836Y-43721D01*
X86836Y-51204D01*
X86693Y-51145D01*
X86496Y-51144D01*
X86314Y-51220D01*
X86175Y-51359D01*
X86100Y-51541D01*
X86099Y-51738D01*
X86175Y-51920D01*
X86314Y-52059D01*
X86496Y-52134D01*
X86693Y-52135D01*
X86875Y-52059D01*
X87014Y-51920D01*
X87089Y-51738D01*
X87090Y-51541D01*
X87090Y-60541D01*
X87014Y-60359D01*
X86875Y-60220D01*
X86693Y-60145D01*
X86496Y-60144D01*
X86314Y-60220D01*
X86175Y-60359D01*
X86100Y-60541D01*
X86099Y-60738D01*
X86175Y-60920D01*
X86314Y-61059D01*
X86496Y-61134D01*
X86693Y-61135D01*
X86875Y-61059D01*
X87014Y-60920D01*
X87089Y-60738D01*
X87090Y-60541D01*
X87090Y-64246D01*
X87076Y-64233D01*
X86980Y-64268D01*
X86902Y-64490D01*
X86916Y-64725D01*
X86980Y-64879D01*
X87076Y-64914D01*
X87417Y-64574D01*
X87417Y-64739D01*
X87159Y-64997D01*
X87194Y-65093D01*
X87416Y-65171D01*
X87651Y-65157D01*
X87805Y-65093D01*
X87840Y-64997D01*
X87840Y-66015D01*
X87769Y-65943D01*
X87594Y-65871D01*
X87406Y-65871D01*
X87231Y-65943D01*
X87097Y-66076D01*
X87025Y-66251D01*
X87025Y-66439D01*
X87097Y-66614D01*
X87230Y-66748D01*
X87405Y-66820D01*
X87593Y-66820D01*
X87768Y-66748D01*
X87902Y-66615D01*
X87974Y-66440D01*
X87974Y-66252D01*
X87974Y-68760D01*
X86090Y-68760D01*
X86090Y-60541D01*
X86090Y-51541D01*
X86014Y-51359D01*
X85875Y-51220D01*
X85693Y-51145D01*
X85496Y-51144D01*
X85314Y-51220D01*
X85175Y-51359D01*
X85100Y-51541D01*
X85099Y-51738D01*
X85175Y-51920D01*
X85314Y-52059D01*
X85496Y-52134D01*
X85693Y-52135D01*
X85875Y-52059D01*
X86014Y-51920D01*
X86089Y-51738D01*
X86090Y-51541D01*
X86090Y-60541D01*
X86014Y-60359D01*
X85875Y-60220D01*
X85693Y-60145D01*
X85496Y-60144D01*
X85314Y-60220D01*
X85175Y-60359D01*
X85100Y-60541D01*
X85099Y-60738D01*
X85175Y-60920D01*
X85314Y-61059D01*
X85496Y-61134D01*
X85693Y-61135D01*
X85875Y-61059D01*
X86014Y-60920D01*
X86089Y-60738D01*
X86090Y-60541D01*
X86090Y-68760D01*
X85537Y-68760D01*
X85537Y-64657D01*
X85523Y-64422D01*
X85459Y-64268D01*
X85363Y-64233D01*
X85280Y-64315D01*
X85280Y-64150D01*
X85245Y-64054D01*
X85090Y-64000D01*
X85090Y-60541D01*
X85090Y-51541D01*
X85014Y-51359D01*
X84875Y-51220D01*
X84693Y-51145D01*
X84496Y-51144D01*
X84314Y-51220D01*
X84175Y-51359D01*
X84100Y-51541D01*
X84099Y-51738D01*
X84175Y-51920D01*
X84314Y-52059D01*
X84496Y-52134D01*
X84693Y-52135D01*
X84875Y-52059D01*
X85014Y-51920D01*
X85089Y-51738D01*
X85090Y-51541D01*
X85090Y-60541D01*
X85014Y-60359D01*
X84875Y-60220D01*
X84693Y-60145D01*
X84496Y-60144D01*
X84314Y-60220D01*
X84175Y-60359D01*
X84100Y-60541D01*
X84099Y-60738D01*
X84175Y-60920D01*
X84314Y-61059D01*
X84496Y-61134D01*
X84693Y-61135D01*
X84875Y-61059D01*
X85014Y-60920D01*
X85089Y-60738D01*
X85090Y-60541D01*
X85090Y-64000D01*
X85023Y-63976D01*
X84788Y-63990D01*
X84634Y-64054D01*
X84599Y-64150D01*
X84940Y-64491D01*
X85280Y-64150D01*
X85280Y-64315D01*
X85022Y-64574D01*
X85363Y-64914D01*
X85459Y-64879D01*
X85537Y-64657D01*
X85537Y-68760D01*
X85414Y-68760D01*
X85414Y-66252D01*
X85342Y-66077D01*
X85280Y-66015D01*
X85280Y-64997D01*
X84940Y-64656D01*
X84857Y-64739D01*
X84857Y-64574D01*
X84516Y-64233D01*
X84420Y-64268D01*
X84342Y-64490D01*
X84356Y-64725D01*
X84420Y-64879D01*
X84516Y-64914D01*
X84857Y-64574D01*
X84857Y-64739D01*
X84599Y-64997D01*
X84634Y-65093D01*
X84856Y-65171D01*
X85091Y-65157D01*
X85245Y-65093D01*
X85280Y-64997D01*
X85280Y-66015D01*
X85209Y-65943D01*
X85034Y-65871D01*
X84846Y-65871D01*
X84671Y-65943D01*
X84537Y-66076D01*
X84465Y-66251D01*
X84465Y-66439D01*
X84537Y-66614D01*
X84670Y-66748D01*
X84845Y-66820D01*
X85033Y-66820D01*
X85208Y-66748D01*
X85342Y-66615D01*
X85414Y-66440D01*
X85414Y-66252D01*
X85414Y-68760D01*
X84090Y-68760D01*
X84090Y-60541D01*
X84090Y-51541D01*
X84014Y-51359D01*
X83986Y-51331D01*
X83986Y-43943D01*
X83972Y-43724D01*
X83916Y-43588D01*
X83823Y-43557D01*
X83741Y-43640D01*
X83741Y-43475D01*
X83710Y-43382D01*
X83502Y-43312D01*
X83305Y-43325D01*
X83305Y-42783D01*
X83238Y-42623D01*
X83116Y-42501D01*
X82956Y-42435D01*
X82783Y-42434D01*
X82623Y-42501D01*
X82501Y-42623D01*
X82435Y-42783D01*
X82434Y-42956D01*
X82501Y-43116D01*
X82623Y-43238D01*
X82783Y-43304D01*
X82956Y-43305D01*
X83116Y-43238D01*
X83238Y-43116D01*
X83304Y-42956D01*
X83305Y-42783D01*
X83305Y-43325D01*
X83283Y-43326D01*
X83147Y-43382D01*
X83116Y-43475D01*
X83429Y-43787D01*
X83741Y-43475D01*
X83741Y-43640D01*
X83511Y-43870D01*
X83823Y-44182D01*
X83916Y-44151D01*
X83986Y-43943D01*
X83986Y-51331D01*
X83875Y-51220D01*
X83741Y-51164D01*
X83741Y-44264D01*
X83429Y-43952D01*
X83346Y-44035D01*
X83346Y-43870D01*
X83034Y-43557D01*
X82978Y-43576D01*
X82921Y-43557D01*
X82839Y-43640D01*
X82839Y-43475D01*
X82808Y-43382D01*
X82600Y-43312D01*
X82403Y-43325D01*
X82403Y-42783D01*
X82336Y-42623D01*
X82214Y-42501D01*
X82054Y-42435D01*
X81881Y-42434D01*
X81721Y-42501D01*
X81599Y-42623D01*
X81533Y-42783D01*
X81532Y-42956D01*
X81599Y-43116D01*
X81721Y-43238D01*
X81881Y-43304D01*
X82054Y-43305D01*
X82214Y-43238D01*
X82336Y-43116D01*
X82402Y-42956D01*
X82403Y-42783D01*
X82403Y-43325D01*
X82381Y-43326D01*
X82245Y-43382D01*
X82214Y-43475D01*
X82527Y-43787D01*
X82839Y-43475D01*
X82839Y-43640D01*
X82609Y-43870D01*
X82921Y-44182D01*
X82978Y-44163D01*
X83034Y-44182D01*
X83346Y-43870D01*
X83346Y-44035D01*
X83116Y-44264D01*
X83147Y-44357D01*
X83355Y-44427D01*
X83574Y-44413D01*
X83710Y-44357D01*
X83741Y-44264D01*
X83741Y-51164D01*
X83693Y-51145D01*
X83496Y-51144D01*
X83314Y-51220D01*
X83305Y-51229D01*
X83305Y-44783D01*
X83238Y-44623D01*
X83116Y-44501D01*
X82956Y-44435D01*
X82839Y-44434D01*
X82839Y-44264D01*
X82527Y-43952D01*
X82444Y-44035D01*
X82444Y-43870D01*
X82132Y-43557D01*
X82076Y-43576D01*
X82020Y-43557D01*
X81938Y-43640D01*
X81938Y-43475D01*
X81907Y-43382D01*
X81699Y-43312D01*
X81501Y-43325D01*
X81501Y-42783D01*
X81434Y-42623D01*
X81312Y-42501D01*
X81152Y-42435D01*
X80979Y-42434D01*
X80819Y-42501D01*
X80697Y-42623D01*
X80631Y-42783D01*
X80630Y-42956D01*
X80697Y-43116D01*
X80819Y-43238D01*
X80979Y-43304D01*
X81152Y-43305D01*
X81312Y-43238D01*
X81434Y-43116D01*
X81500Y-42956D01*
X81501Y-42783D01*
X81501Y-43325D01*
X81480Y-43326D01*
X81344Y-43382D01*
X81313Y-43475D01*
X81626Y-43787D01*
X81938Y-43475D01*
X81938Y-43640D01*
X81708Y-43870D01*
X82020Y-44182D01*
X82076Y-44163D01*
X82132Y-44182D01*
X82444Y-43870D01*
X82444Y-44035D01*
X82214Y-44264D01*
X82245Y-44357D01*
X82453Y-44427D01*
X82672Y-44413D01*
X82808Y-44357D01*
X82839Y-44264D01*
X82839Y-44434D01*
X82783Y-44434D01*
X82623Y-44501D01*
X82501Y-44623D01*
X82435Y-44783D01*
X82434Y-44956D01*
X82501Y-45116D01*
X82623Y-45238D01*
X82783Y-45304D01*
X82956Y-45305D01*
X83116Y-45238D01*
X83238Y-45116D01*
X83304Y-44956D01*
X83305Y-44783D01*
X83305Y-51229D01*
X83175Y-51359D01*
X83100Y-51541D01*
X83099Y-51738D01*
X83175Y-51920D01*
X83314Y-52059D01*
X83496Y-52134D01*
X83693Y-52135D01*
X83875Y-52059D01*
X84014Y-51920D01*
X84089Y-51738D01*
X84090Y-51541D01*
X84090Y-60541D01*
X84014Y-60359D01*
X83875Y-60220D01*
X83693Y-60145D01*
X83496Y-60144D01*
X83314Y-60220D01*
X83175Y-60359D01*
X83100Y-60541D01*
X83099Y-60738D01*
X83175Y-60920D01*
X83314Y-61059D01*
X83496Y-61134D01*
X83693Y-61135D01*
X83875Y-61059D01*
X84014Y-60920D01*
X84089Y-60738D01*
X84090Y-60541D01*
X84090Y-68760D01*
X83090Y-68760D01*
X83090Y-60541D01*
X83090Y-51541D01*
X83014Y-51359D01*
X82875Y-51220D01*
X82693Y-51145D01*
X82496Y-51144D01*
X82403Y-51183D01*
X82403Y-44783D01*
X82336Y-44623D01*
X82214Y-44501D01*
X82054Y-44435D01*
X81938Y-44434D01*
X81938Y-44264D01*
X81626Y-43952D01*
X81543Y-44035D01*
X81543Y-43870D01*
X81231Y-43557D01*
X81138Y-43588D01*
X81102Y-43695D01*
X81072Y-43623D01*
X80950Y-43501D01*
X80790Y-43435D01*
X80617Y-43434D01*
X80600Y-43442D01*
X80600Y-42783D01*
X80533Y-42623D01*
X80411Y-42501D01*
X80251Y-42435D01*
X80078Y-42434D01*
X79918Y-42501D01*
X79796Y-42623D01*
X79780Y-42661D01*
X79750Y-42588D01*
X79657Y-42557D01*
X79575Y-42640D01*
X79575Y-42475D01*
X79544Y-42382D01*
X79336Y-42312D01*
X79117Y-42326D01*
X78981Y-42382D01*
X78950Y-42475D01*
X79263Y-42787D01*
X79575Y-42475D01*
X79575Y-42640D01*
X79345Y-42870D01*
X79657Y-43182D01*
X79750Y-43151D01*
X79777Y-43071D01*
X79796Y-43116D01*
X79918Y-43238D01*
X80078Y-43304D01*
X80251Y-43305D01*
X80411Y-43238D01*
X80533Y-43116D01*
X80599Y-42956D01*
X80600Y-42783D01*
X80600Y-43442D01*
X80457Y-43501D01*
X80335Y-43623D01*
X80329Y-43636D01*
X80310Y-43588D01*
X80217Y-43557D01*
X80135Y-43640D01*
X80135Y-43475D01*
X80104Y-43382D01*
X79896Y-43312D01*
X79677Y-43326D01*
X79575Y-43368D01*
X79575Y-43264D01*
X79263Y-42952D01*
X79180Y-43035D01*
X79180Y-42870D01*
X78868Y-42557D01*
X78775Y-42588D01*
X78705Y-42796D01*
X78719Y-43015D01*
X78775Y-43151D01*
X78868Y-43182D01*
X79180Y-42870D01*
X79180Y-43035D01*
X78950Y-43264D01*
X78981Y-43357D01*
X79189Y-43427D01*
X79408Y-43413D01*
X79544Y-43357D01*
X79575Y-43264D01*
X79575Y-43368D01*
X79541Y-43382D01*
X79510Y-43475D01*
X79823Y-43787D01*
X80135Y-43475D01*
X80135Y-43640D01*
X79905Y-43870D01*
X80217Y-44182D01*
X80310Y-44151D01*
X80327Y-44099D01*
X80335Y-44116D01*
X80457Y-44238D01*
X80617Y-44304D01*
X80790Y-44305D01*
X80950Y-44238D01*
X81072Y-44116D01*
X81098Y-44054D01*
X81138Y-44151D01*
X81231Y-44182D01*
X81543Y-43870D01*
X81543Y-44035D01*
X81313Y-44264D01*
X81344Y-44357D01*
X81552Y-44427D01*
X81771Y-44413D01*
X81907Y-44357D01*
X81938Y-44264D01*
X81938Y-44434D01*
X81881Y-44434D01*
X81721Y-44501D01*
X81599Y-44623D01*
X81533Y-44783D01*
X81532Y-44956D01*
X81599Y-45116D01*
X81721Y-45238D01*
X81881Y-45304D01*
X82054Y-45305D01*
X82214Y-45238D01*
X82336Y-45116D01*
X82402Y-44956D01*
X82403Y-44783D01*
X82403Y-51183D01*
X82314Y-51220D01*
X82175Y-51359D01*
X82100Y-51541D01*
X82099Y-51738D01*
X82175Y-51920D01*
X82314Y-52059D01*
X82496Y-52134D01*
X82693Y-52135D01*
X82875Y-52059D01*
X83014Y-51920D01*
X83089Y-51738D01*
X83090Y-51541D01*
X83090Y-60541D01*
X83014Y-60359D01*
X82875Y-60220D01*
X82693Y-60145D01*
X82496Y-60144D01*
X82314Y-60220D01*
X82175Y-60359D01*
X82100Y-60541D01*
X82099Y-60738D01*
X82175Y-60920D01*
X82314Y-61059D01*
X82496Y-61134D01*
X82693Y-61135D01*
X82875Y-61059D01*
X83014Y-60920D01*
X83089Y-60738D01*
X83090Y-60541D01*
X83090Y-68760D01*
X82090Y-68760D01*
X82090Y-60541D01*
X82090Y-51541D01*
X82014Y-51359D01*
X81875Y-51220D01*
X81693Y-51145D01*
X81501Y-51144D01*
X81501Y-44783D01*
X81434Y-44623D01*
X81312Y-44501D01*
X81152Y-44435D01*
X80979Y-44434D01*
X80819Y-44501D01*
X80697Y-44623D01*
X80631Y-44783D01*
X80630Y-44956D01*
X80697Y-45116D01*
X80819Y-45238D01*
X80979Y-45304D01*
X81152Y-45305D01*
X81312Y-45238D01*
X81434Y-45116D01*
X81500Y-44956D01*
X81501Y-44783D01*
X81501Y-51144D01*
X81496Y-51144D01*
X81314Y-51220D01*
X81175Y-51359D01*
X81100Y-51541D01*
X81099Y-51738D01*
X81175Y-51920D01*
X81314Y-52059D01*
X81496Y-52134D01*
X81693Y-52135D01*
X81875Y-52059D01*
X82014Y-51920D01*
X82089Y-51738D01*
X82090Y-51541D01*
X82090Y-60541D01*
X82014Y-60359D01*
X81875Y-60220D01*
X81693Y-60145D01*
X81496Y-60144D01*
X81314Y-60220D01*
X81175Y-60359D01*
X81100Y-60541D01*
X81099Y-60738D01*
X81175Y-60920D01*
X81314Y-61059D01*
X81496Y-61134D01*
X81693Y-61135D01*
X81875Y-61059D01*
X82014Y-60920D01*
X82089Y-60738D01*
X82090Y-60541D01*
X82090Y-68760D01*
X81090Y-68760D01*
X81090Y-60541D01*
X81090Y-51541D01*
X81014Y-51359D01*
X80875Y-51220D01*
X80693Y-51145D01*
X80600Y-51145D01*
X80600Y-44783D01*
X80533Y-44623D01*
X80411Y-44501D01*
X80251Y-44435D01*
X80135Y-44434D01*
X80135Y-44264D01*
X79823Y-43952D01*
X79740Y-44035D01*
X79740Y-43870D01*
X79428Y-43557D01*
X79335Y-43588D01*
X79265Y-43796D01*
X79279Y-44015D01*
X79335Y-44151D01*
X79428Y-44182D01*
X79740Y-43870D01*
X79740Y-44035D01*
X79510Y-44264D01*
X79541Y-44357D01*
X79749Y-44427D01*
X79968Y-44413D01*
X80104Y-44357D01*
X80135Y-44264D01*
X80135Y-44434D01*
X80078Y-44434D01*
X79918Y-44501D01*
X79796Y-44623D01*
X79730Y-44783D01*
X79729Y-44956D01*
X79796Y-45116D01*
X79918Y-45238D01*
X80078Y-45304D01*
X80251Y-45305D01*
X80411Y-45238D01*
X80533Y-45116D01*
X80599Y-44956D01*
X80600Y-44783D01*
X80600Y-51145D01*
X80496Y-51144D01*
X80314Y-51220D01*
X80175Y-51359D01*
X80100Y-51541D01*
X80099Y-51738D01*
X80175Y-51920D01*
X80314Y-52059D01*
X80496Y-52134D01*
X80693Y-52135D01*
X80875Y-52059D01*
X81014Y-51920D01*
X81089Y-51738D01*
X81090Y-51541D01*
X81090Y-60541D01*
X81014Y-60359D01*
X80875Y-60220D01*
X80693Y-60145D01*
X80496Y-60144D01*
X80314Y-60220D01*
X80175Y-60359D01*
X80100Y-60541D01*
X80099Y-60738D01*
X80175Y-60920D01*
X80314Y-61059D01*
X80496Y-61134D01*
X80693Y-61135D01*
X80875Y-61059D01*
X81014Y-60920D01*
X81089Y-60738D01*
X81090Y-60541D01*
X81090Y-68760D01*
X80750Y-68760D01*
X80750Y-66162D01*
X80713Y-66074D01*
X80710Y-66070D01*
X80710Y-64029D01*
X80713Y-64026D01*
X80749Y-63937D01*
X80750Y-63842D01*
X80713Y-63754D01*
X80646Y-63686D01*
X80557Y-63650D01*
X80462Y-63649D01*
X80374Y-63686D01*
X80306Y-63753D01*
X80270Y-63842D01*
X80269Y-63937D01*
X80306Y-64025D01*
X80310Y-64029D01*
X80310Y-66070D01*
X80306Y-66073D01*
X80270Y-66162D01*
X80269Y-66257D01*
X80306Y-66345D01*
X80373Y-66413D01*
X80462Y-66449D01*
X80557Y-66450D01*
X80645Y-66413D01*
X80713Y-66346D01*
X80749Y-66257D01*
X80750Y-66162D01*
X80750Y-68760D01*
X80090Y-68760D01*
X80090Y-60541D01*
X80090Y-51541D01*
X80014Y-51359D01*
X79875Y-51220D01*
X79698Y-51146D01*
X79698Y-44783D01*
X79631Y-44623D01*
X79509Y-44501D01*
X79349Y-44435D01*
X79176Y-44434D01*
X79016Y-44501D01*
X78894Y-44623D01*
X78828Y-44783D01*
X78827Y-44956D01*
X78894Y-45116D01*
X79016Y-45238D01*
X79176Y-45304D01*
X79349Y-45305D01*
X79509Y-45238D01*
X79631Y-45116D01*
X79697Y-44956D01*
X79698Y-44783D01*
X79698Y-51146D01*
X79693Y-51145D01*
X79496Y-51144D01*
X79314Y-51220D01*
X79175Y-51359D01*
X79100Y-51541D01*
X79099Y-51738D01*
X79175Y-51920D01*
X79314Y-52059D01*
X79496Y-52134D01*
X79693Y-52135D01*
X79875Y-52059D01*
X80014Y-51920D01*
X80089Y-51738D01*
X80090Y-51541D01*
X80090Y-60541D01*
X80014Y-60359D01*
X79875Y-60220D01*
X79693Y-60145D01*
X79496Y-60144D01*
X79314Y-60220D01*
X79175Y-60359D01*
X79100Y-60541D01*
X79099Y-60738D01*
X79175Y-60920D01*
X79314Y-61059D01*
X79496Y-61134D01*
X79693Y-61135D01*
X79875Y-61059D01*
X80014Y-60920D01*
X80089Y-60738D01*
X80090Y-60541D01*
X80090Y-68760D01*
X79090Y-68760D01*
X79090Y-60541D01*
X79090Y-51541D01*
X79014Y-51359D01*
X78920Y-51264D01*
X78920Y-49416D01*
X78856Y-49262D01*
X78738Y-49144D01*
X78583Y-49080D01*
X78416Y-49079D01*
X78262Y-49143D01*
X78144Y-49261D01*
X78080Y-49416D01*
X78079Y-49583D01*
X78143Y-49737D01*
X78261Y-49855D01*
X78416Y-49919D01*
X78583Y-49920D01*
X78737Y-49856D01*
X78855Y-49738D01*
X78919Y-49583D01*
X78920Y-49416D01*
X78920Y-51264D01*
X78875Y-51220D01*
X78693Y-51145D01*
X78496Y-51144D01*
X78314Y-51220D01*
X78175Y-51359D01*
X78100Y-51541D01*
X78099Y-51738D01*
X78175Y-51920D01*
X78314Y-52059D01*
X78496Y-52134D01*
X78693Y-52135D01*
X78875Y-52059D01*
X79014Y-51920D01*
X79089Y-51738D01*
X79090Y-51541D01*
X79090Y-60541D01*
X79014Y-60359D01*
X78875Y-60220D01*
X78693Y-60145D01*
X78496Y-60144D01*
X78314Y-60220D01*
X78175Y-60359D01*
X78100Y-60541D01*
X78099Y-60738D01*
X78175Y-60920D01*
X78314Y-61059D01*
X78496Y-61134D01*
X78693Y-61135D01*
X78875Y-61059D01*
X79014Y-60920D01*
X79089Y-60738D01*
X79090Y-60541D01*
X79090Y-68760D01*
X78090Y-68760D01*
X78090Y-60541D01*
X78090Y-51541D01*
X78014Y-51359D01*
X77920Y-51264D01*
X77920Y-48416D01*
X77856Y-48262D01*
X77738Y-48144D01*
X77583Y-48080D01*
X77416Y-48079D01*
X77262Y-48143D01*
X77144Y-48261D01*
X77080Y-48416D01*
X77079Y-48583D01*
X77143Y-48737D01*
X77261Y-48855D01*
X77416Y-48919D01*
X77583Y-48920D01*
X77737Y-48856D01*
X77855Y-48738D01*
X77919Y-48583D01*
X77920Y-48416D01*
X77920Y-51264D01*
X77875Y-51220D01*
X77693Y-51145D01*
X77496Y-51144D01*
X77314Y-51220D01*
X77175Y-51359D01*
X77100Y-51541D01*
X77099Y-51738D01*
X77175Y-51920D01*
X77314Y-52059D01*
X77496Y-52134D01*
X77693Y-52135D01*
X77875Y-52059D01*
X78014Y-51920D01*
X78089Y-51738D01*
X78090Y-51541D01*
X78090Y-60541D01*
X78014Y-60359D01*
X77875Y-60220D01*
X77693Y-60145D01*
X77496Y-60144D01*
X77314Y-60220D01*
X77175Y-60359D01*
X77100Y-60541D01*
X77099Y-60738D01*
X77175Y-60920D01*
X77314Y-61059D01*
X77496Y-61134D01*
X77693Y-61135D01*
X77875Y-61059D01*
X78014Y-60920D01*
X78089Y-60738D01*
X78090Y-60541D01*
X78090Y-68760D01*
X77090Y-68760D01*
X77090Y-60541D01*
X77090Y-51541D01*
X77014Y-51359D01*
X76994Y-51339D01*
X76994Y-43721D01*
X76880Y-43445D01*
X76669Y-43234D01*
X76393Y-43120D01*
X76095Y-43119D01*
X75819Y-43233D01*
X75608Y-43444D01*
X75494Y-43720D01*
X75493Y-44018D01*
X75607Y-44294D01*
X75818Y-44505D01*
X76094Y-44619D01*
X76392Y-44620D01*
X76668Y-44506D01*
X76879Y-44295D01*
X76993Y-44019D01*
X76994Y-43721D01*
X76994Y-51339D01*
X76920Y-51264D01*
X76920Y-49416D01*
X76856Y-49262D01*
X76738Y-49144D01*
X76583Y-49080D01*
X76416Y-49079D01*
X76262Y-49143D01*
X76144Y-49261D01*
X76080Y-49416D01*
X76079Y-49583D01*
X76143Y-49737D01*
X76261Y-49855D01*
X76416Y-49919D01*
X76583Y-49920D01*
X76737Y-49856D01*
X76855Y-49738D01*
X76919Y-49583D01*
X76920Y-49416D01*
X76920Y-51264D01*
X76875Y-51220D01*
X76693Y-51145D01*
X76496Y-51144D01*
X76314Y-51220D01*
X76175Y-51359D01*
X76100Y-51541D01*
X76099Y-51738D01*
X76175Y-51920D01*
X76314Y-52059D01*
X76496Y-52134D01*
X76693Y-52135D01*
X76875Y-52059D01*
X77014Y-51920D01*
X77089Y-51738D01*
X77090Y-51541D01*
X77090Y-60541D01*
X77014Y-60359D01*
X76875Y-60220D01*
X76693Y-60145D01*
X76496Y-60144D01*
X76314Y-60220D01*
X76175Y-60359D01*
X76100Y-60541D01*
X76099Y-60738D01*
X76175Y-60920D01*
X76314Y-61059D01*
X76496Y-61134D01*
X76693Y-61135D01*
X76875Y-61059D01*
X77014Y-60920D01*
X77089Y-60738D01*
X77090Y-60541D01*
X77090Y-68760D01*
X76765Y-68760D01*
X76765Y-67437D01*
X76728Y-67349D01*
X76725Y-67345D01*
X76725Y-66349D01*
X76728Y-66346D01*
X76764Y-66257D01*
X76765Y-66162D01*
X76728Y-66074D01*
X76725Y-66070D01*
X76725Y-64375D01*
X76715Y-64324D01*
X76715Y-64024D01*
X76718Y-64021D01*
X76754Y-63932D01*
X76755Y-63837D01*
X76718Y-63749D01*
X76651Y-63681D01*
X76562Y-63645D01*
X76467Y-63644D01*
X76379Y-63681D01*
X76311Y-63748D01*
X76275Y-63837D01*
X76274Y-63932D01*
X76311Y-64020D01*
X76315Y-64024D01*
X76315Y-64365D01*
X76325Y-64415D01*
X76325Y-66070D01*
X76321Y-66073D01*
X76285Y-66162D01*
X76284Y-66257D01*
X76321Y-66345D01*
X76325Y-66349D01*
X76325Y-67345D01*
X76321Y-67348D01*
X76285Y-67437D01*
X76284Y-67532D01*
X76321Y-67620D01*
X76388Y-67688D01*
X76477Y-67724D01*
X76572Y-67725D01*
X76660Y-67688D01*
X76728Y-67621D01*
X76764Y-67532D01*
X76765Y-67437D01*
X76765Y-68760D01*
X76090Y-68760D01*
X76090Y-60541D01*
X76090Y-51541D01*
X76014Y-51359D01*
X75920Y-51264D01*
X75920Y-48416D01*
X75856Y-48262D01*
X75738Y-48144D01*
X75583Y-48080D01*
X75416Y-48079D01*
X75262Y-48143D01*
X75144Y-48261D01*
X75080Y-48416D01*
X75079Y-48583D01*
X75143Y-48737D01*
X75261Y-48855D01*
X75416Y-48919D01*
X75583Y-48920D01*
X75737Y-48856D01*
X75855Y-48738D01*
X75919Y-48583D01*
X75920Y-48416D01*
X75920Y-51264D01*
X75875Y-51220D01*
X75693Y-51145D01*
X75496Y-51144D01*
X75314Y-51220D01*
X75175Y-51359D01*
X75100Y-51541D01*
X75099Y-51738D01*
X75175Y-51920D01*
X75314Y-52059D01*
X75496Y-52134D01*
X75693Y-52135D01*
X75875Y-52059D01*
X76014Y-51920D01*
X76089Y-51738D01*
X76090Y-51541D01*
X76090Y-60541D01*
X76014Y-60359D01*
X75875Y-60220D01*
X75693Y-60145D01*
X75496Y-60144D01*
X75314Y-60220D01*
X75175Y-60359D01*
X75100Y-60541D01*
X75099Y-60738D01*
X75175Y-60920D01*
X75314Y-61059D01*
X75496Y-61134D01*
X75693Y-61135D01*
X75875Y-61059D01*
X76014Y-60920D01*
X76089Y-60738D01*
X76090Y-60541D01*
X76090Y-68760D01*
X75090Y-68760D01*
X75090Y-60541D01*
X75090Y-51541D01*
X75014Y-51359D01*
X74875Y-51220D01*
X74693Y-51145D01*
X74496Y-51144D01*
X74314Y-51220D01*
X74175Y-51359D01*
X74100Y-51541D01*
X74099Y-51738D01*
X74175Y-51920D01*
X74314Y-52059D01*
X74496Y-52134D01*
X74693Y-52135D01*
X74875Y-52059D01*
X75014Y-51920D01*
X75089Y-51738D01*
X75090Y-51541D01*
X75090Y-60541D01*
X75014Y-60359D01*
X74875Y-60220D01*
X74693Y-60145D01*
X74496Y-60144D01*
X74314Y-60220D01*
X74175Y-60359D01*
X74100Y-60541D01*
X74099Y-60738D01*
X74175Y-60920D01*
X74314Y-61059D01*
X74496Y-61134D01*
X74693Y-61135D01*
X74875Y-61059D01*
X75014Y-60920D01*
X75089Y-60738D01*
X75090Y-60541D01*
X75090Y-68760D01*
X74090Y-68760D01*
X74090Y-60541D01*
X74090Y-51541D01*
X74014Y-51359D01*
X73875Y-51220D01*
X73693Y-51145D01*
X73496Y-51144D01*
X73314Y-51220D01*
X73175Y-51359D01*
X73100Y-51541D01*
X73099Y-51738D01*
X73175Y-51920D01*
X73314Y-52059D01*
X73496Y-52134D01*
X73693Y-52135D01*
X73875Y-52059D01*
X74014Y-51920D01*
X74089Y-51738D01*
X74090Y-51541D01*
X74090Y-60541D01*
X74014Y-60359D01*
X73875Y-60220D01*
X73693Y-60145D01*
X73496Y-60144D01*
X73314Y-60220D01*
X73175Y-60359D01*
X73100Y-60541D01*
X73099Y-60738D01*
X73175Y-60920D01*
X73314Y-61059D01*
X73496Y-61134D01*
X73693Y-61135D01*
X73875Y-61059D01*
X74014Y-60920D01*
X74089Y-60738D01*
X74090Y-60541D01*
X74090Y-68760D01*
X73090Y-68760D01*
X73090Y-60541D01*
X73090Y-51541D01*
X73014Y-51359D01*
X72875Y-51220D01*
X72693Y-51145D01*
X72496Y-51144D01*
X72314Y-51220D01*
X72175Y-51359D01*
X72100Y-51541D01*
X72099Y-51738D01*
X72175Y-51920D01*
X72314Y-52059D01*
X72496Y-52134D01*
X72693Y-52135D01*
X72875Y-52059D01*
X73014Y-51920D01*
X73089Y-51738D01*
X73090Y-51541D01*
X73090Y-60541D01*
X73014Y-60359D01*
X72875Y-60220D01*
X72693Y-60145D01*
X72496Y-60144D01*
X72314Y-60220D01*
X72175Y-60359D01*
X72100Y-60541D01*
X72099Y-60738D01*
X72175Y-60920D01*
X72314Y-61059D01*
X72496Y-61134D01*
X72693Y-61135D01*
X72875Y-61059D01*
X73014Y-60920D01*
X73089Y-60738D01*
X73090Y-60541D01*
X73090Y-68760D01*
X71178Y-68760D01*
X71178Y-42133D01*
X71178Y-41884D01*
X71111Y-41743D01*
X70983Y-41630D01*
X70821Y-41575D01*
X70329Y-41575D01*
X70329Y-41950D01*
X71133Y-41950D01*
X71178Y-41884D01*
X71178Y-42133D01*
X71133Y-42067D01*
X70329Y-42067D01*
X70329Y-42442D01*
X70821Y-42442D01*
X70983Y-42387D01*
X71111Y-42274D01*
X71178Y-42133D01*
X71178Y-68760D01*
X71095Y-68760D01*
X71095Y-44764D01*
X71071Y-44642D01*
X71003Y-44539D01*
X70900Y-44471D01*
X70778Y-44447D01*
X70212Y-44447D01*
X70212Y-42442D01*
X70212Y-42067D01*
X70212Y-41950D01*
X70212Y-41575D01*
X69720Y-41575D01*
X69558Y-41630D01*
X69430Y-41743D01*
X69363Y-41884D01*
X69408Y-41950D01*
X70212Y-41950D01*
X70212Y-42067D01*
X69408Y-42067D01*
X69363Y-42133D01*
X69430Y-42274D01*
X69558Y-42387D01*
X69720Y-42442D01*
X70212Y-42442D01*
X70212Y-44447D01*
X69763Y-44447D01*
X69641Y-44471D01*
X69538Y-44539D01*
X69470Y-44642D01*
X69446Y-44764D01*
X69470Y-44885D01*
X69538Y-44988D01*
X69641Y-45056D01*
X69763Y-45081D01*
X70778Y-45081D01*
X70900Y-45056D01*
X71003Y-44988D01*
X71071Y-44885D01*
X71095Y-44764D01*
X71095Y-68760D01*
X68697Y-68760D01*
X68697Y-44046D01*
X68697Y-43031D01*
X68672Y-42909D01*
X68604Y-42806D01*
X68501Y-42738D01*
X68380Y-42714D01*
X68258Y-42738D01*
X68155Y-42806D01*
X68087Y-42909D01*
X68063Y-43031D01*
X68063Y-44046D01*
X68087Y-44168D01*
X68155Y-44271D01*
X68258Y-44339D01*
X68380Y-44363D01*
X68501Y-44339D01*
X68604Y-44271D01*
X68672Y-44168D01*
X68697Y-44046D01*
X68697Y-68760D01*
X68647Y-68760D01*
X68647Y-50255D01*
X68633Y-50042D01*
X68579Y-49912D01*
X68489Y-49883D01*
X68406Y-49966D01*
X68406Y-49800D01*
X68377Y-49710D01*
X68175Y-49642D01*
X67962Y-49656D01*
X67832Y-49710D01*
X67803Y-49800D01*
X68105Y-50102D01*
X68406Y-49800D01*
X68406Y-49966D01*
X68187Y-50185D01*
X68489Y-50486D01*
X68579Y-50457D01*
X68647Y-50255D01*
X68647Y-68760D01*
X68406Y-68760D01*
X68406Y-50569D01*
X68105Y-50267D01*
X68022Y-50350D01*
X68022Y-50185D01*
X67720Y-49883D01*
X67630Y-49912D01*
X67562Y-50114D01*
X67576Y-50327D01*
X67630Y-50457D01*
X67720Y-50486D01*
X68022Y-50185D01*
X68022Y-50350D01*
X67803Y-50569D01*
X67832Y-50659D01*
X68034Y-50727D01*
X68247Y-50713D01*
X68377Y-50659D01*
X68406Y-50569D01*
X68406Y-68760D01*
X67069Y-68760D01*
X67069Y-39509D01*
X106160Y-39509D01*
X106160Y-68760D01*
X106160Y-68760D01*
G37*
G54D25*
X106160Y-68760D02*
X105502Y-68760D01*
X105502Y-64640D01*
X105488Y-64427D01*
X105434Y-64297D01*
X105344Y-64268D01*
X105261Y-64351D01*
X105261Y-64185D01*
X105232Y-64095D01*
X105042Y-64031D01*
X105042Y-59570D01*
X105028Y-59357D01*
X104974Y-59227D01*
X104920Y-59210D01*
X104920Y-56416D01*
X104856Y-56262D01*
X104738Y-56144D01*
X104583Y-56080D01*
X104416Y-56079D01*
X104262Y-56143D01*
X104144Y-56261D01*
X104080Y-56416D01*
X104079Y-56583D01*
X104143Y-56737D01*
X104261Y-56855D01*
X104416Y-56919D01*
X104583Y-56920D01*
X104737Y-56856D01*
X104855Y-56738D01*
X104919Y-56583D01*
X104920Y-56416D01*
X104920Y-59210D01*
X104920Y-59210D01*
X104920Y-58776D01*
X104920Y-58176D01*
X104920Y-57776D01*
X104920Y-57176D01*
X104901Y-57132D01*
X104868Y-57098D01*
X104823Y-57080D01*
X104776Y-57079D01*
X104176Y-57079D01*
X104132Y-57098D01*
X104098Y-57131D01*
X104080Y-57176D01*
X104079Y-57223D01*
X104079Y-57823D01*
X104098Y-57867D01*
X104131Y-57901D01*
X104176Y-57919D01*
X104223Y-57920D01*
X104823Y-57920D01*
X104867Y-57901D01*
X104901Y-57868D01*
X104919Y-57823D01*
X104920Y-57776D01*
X104920Y-58176D01*
X104901Y-58132D01*
X104868Y-58098D01*
X104823Y-58080D01*
X104776Y-58079D01*
X104176Y-58079D01*
X104132Y-58098D01*
X104098Y-58131D01*
X104080Y-58176D01*
X104079Y-58223D01*
X104079Y-58823D01*
X104098Y-58867D01*
X104131Y-58901D01*
X104176Y-58919D01*
X104223Y-58920D01*
X104823Y-58920D01*
X104867Y-58901D01*
X104901Y-58868D01*
X104919Y-58823D01*
X104920Y-58776D01*
X104920Y-59210D01*
X104884Y-59198D01*
X104801Y-59281D01*
X104801Y-59115D01*
X104772Y-59025D01*
X104570Y-58957D01*
X104357Y-58971D01*
X104227Y-59025D01*
X104198Y-59115D01*
X104500Y-59417D01*
X104801Y-59115D01*
X104801Y-59281D01*
X104582Y-59500D01*
X104884Y-59801D01*
X104974Y-59772D01*
X105042Y-59570D01*
X105042Y-64031D01*
X105030Y-64027D01*
X104817Y-64041D01*
X104801Y-64048D01*
X104801Y-59884D01*
X104500Y-59582D01*
X104417Y-59665D01*
X104417Y-59500D01*
X104115Y-59198D01*
X104025Y-59227D01*
X103957Y-59429D01*
X103971Y-59642D01*
X104025Y-59772D01*
X104115Y-59801D01*
X104417Y-59500D01*
X104417Y-59665D01*
X104198Y-59884D01*
X104227Y-59974D01*
X104429Y-60042D01*
X104642Y-60028D01*
X104772Y-59974D01*
X104801Y-59884D01*
X104801Y-64048D01*
X104687Y-64095D01*
X104658Y-64185D01*
X104960Y-64487D01*
X105261Y-64185D01*
X105261Y-64351D01*
X105042Y-64570D01*
X105344Y-64871D01*
X105434Y-64842D01*
X105502Y-64640D01*
X105502Y-68760D01*
X105261Y-68760D01*
X105261Y-64954D01*
X104960Y-64652D01*
X104877Y-64735D01*
X104877Y-64570D01*
X104575Y-64268D01*
X104485Y-64297D01*
X104417Y-64499D01*
X104431Y-64712D01*
X104485Y-64842D01*
X104575Y-64871D01*
X104877Y-64570D01*
X104877Y-64735D01*
X104658Y-64954D01*
X104687Y-65044D01*
X104889Y-65112D01*
X105102Y-65098D01*
X105232Y-65044D01*
X105261Y-64954D01*
X105261Y-68760D01*
X103920Y-68760D01*
X103920Y-58416D01*
X103920Y-57416D01*
X103856Y-57262D01*
X103738Y-57144D01*
X103583Y-57080D01*
X103416Y-57079D01*
X103262Y-57143D01*
X103144Y-57261D01*
X103080Y-57416D01*
X103079Y-57583D01*
X103143Y-57737D01*
X103261Y-57855D01*
X103416Y-57919D01*
X103583Y-57920D01*
X103737Y-57856D01*
X103855Y-57738D01*
X103919Y-57583D01*
X103920Y-57416D01*
X103920Y-58416D01*
X103856Y-58262D01*
X103738Y-58144D01*
X103583Y-58080D01*
X103416Y-58079D01*
X103262Y-58143D01*
X103144Y-58261D01*
X103080Y-58416D01*
X103079Y-58583D01*
X103143Y-58737D01*
X103261Y-58855D01*
X103416Y-58919D01*
X103583Y-58920D01*
X103737Y-58856D01*
X103855Y-58738D01*
X103919Y-58583D01*
X103920Y-58416D01*
X103920Y-68760D01*
X102272Y-68760D01*
X102272Y-64657D01*
X102258Y-64422D01*
X102194Y-64268D01*
X102098Y-64233D01*
X102015Y-64315D01*
X102015Y-64150D01*
X101980Y-64054D01*
X101758Y-63976D01*
X101570Y-63987D01*
X101570Y-52722D01*
X101570Y-42722D01*
X101437Y-42402D01*
X101193Y-42157D01*
X100873Y-42025D01*
X100527Y-42024D01*
X100207Y-42157D01*
X99962Y-42401D01*
X99830Y-42721D01*
X99829Y-43067D01*
X99962Y-43387D01*
X100206Y-43632D01*
X100526Y-43764D01*
X100872Y-43765D01*
X101192Y-43632D01*
X101437Y-43388D01*
X101569Y-43068D01*
X101570Y-42722D01*
X101570Y-52722D01*
X101437Y-52402D01*
X101193Y-52157D01*
X101120Y-52127D01*
X101120Y-49411D01*
X101120Y-48311D01*
X101120Y-47261D01*
X101120Y-46161D01*
X101056Y-46007D01*
X100938Y-45889D01*
X100783Y-45825D01*
X100616Y-45824D01*
X100462Y-45888D01*
X100344Y-46006D01*
X100280Y-46161D01*
X100279Y-46328D01*
X100343Y-46482D01*
X100461Y-46600D01*
X100616Y-46664D01*
X100783Y-46665D01*
X100937Y-46601D01*
X101055Y-46483D01*
X101119Y-46328D01*
X101120Y-46161D01*
X101120Y-47261D01*
X101056Y-47107D01*
X100938Y-46989D01*
X100783Y-46925D01*
X100616Y-46924D01*
X100462Y-46988D01*
X100344Y-47106D01*
X100280Y-47261D01*
X100279Y-47428D01*
X100343Y-47582D01*
X100461Y-47700D01*
X100616Y-47764D01*
X100783Y-47765D01*
X100937Y-47701D01*
X101055Y-47583D01*
X101119Y-47428D01*
X101120Y-47261D01*
X101120Y-48311D01*
X101056Y-48157D01*
X100938Y-48039D01*
X100783Y-47975D01*
X100616Y-47974D01*
X100462Y-48038D01*
X100344Y-48156D01*
X100280Y-48311D01*
X100279Y-48478D01*
X100343Y-48632D01*
X100461Y-48750D01*
X100616Y-48814D01*
X100783Y-48815D01*
X100937Y-48751D01*
X101055Y-48633D01*
X101119Y-48478D01*
X101120Y-48311D01*
X101120Y-49411D01*
X101056Y-49257D01*
X100938Y-49139D01*
X100783Y-49075D01*
X100616Y-49074D01*
X100462Y-49138D01*
X100344Y-49256D01*
X100280Y-49411D01*
X100279Y-49578D01*
X100343Y-49732D01*
X100461Y-49850D01*
X100616Y-49914D01*
X100783Y-49915D01*
X100937Y-49851D01*
X101055Y-49733D01*
X101119Y-49578D01*
X101120Y-49411D01*
X101120Y-52127D01*
X100873Y-52025D01*
X100527Y-52024D01*
X100242Y-52142D01*
X100242Y-50115D01*
X100228Y-49902D01*
X100174Y-49772D01*
X100120Y-49755D01*
X100120Y-48861D01*
X100120Y-47761D01*
X100120Y-46711D01*
X100120Y-46711D01*
X100120Y-45971D01*
X100120Y-45371D01*
X100101Y-45327D01*
X100068Y-45293D01*
X100023Y-45275D01*
X99976Y-45274D01*
X99376Y-45274D01*
X99332Y-45293D01*
X99298Y-45326D01*
X99280Y-45371D01*
X99279Y-45418D01*
X99279Y-46018D01*
X99298Y-46062D01*
X99331Y-46096D01*
X99376Y-46114D01*
X99423Y-46115D01*
X100023Y-46115D01*
X100067Y-46096D01*
X100101Y-46063D01*
X100119Y-46018D01*
X100120Y-45971D01*
X100120Y-46711D01*
X100056Y-46557D01*
X99938Y-46439D01*
X99783Y-46375D01*
X99616Y-46374D01*
X99462Y-46438D01*
X99344Y-46556D01*
X99280Y-46711D01*
X99279Y-46878D01*
X99343Y-47032D01*
X99461Y-47150D01*
X99616Y-47214D01*
X99783Y-47215D01*
X99937Y-47151D01*
X100055Y-47033D01*
X100119Y-46878D01*
X100120Y-46711D01*
X100120Y-47761D01*
X100056Y-47607D01*
X99938Y-47489D01*
X99783Y-47425D01*
X99616Y-47424D01*
X99462Y-47488D01*
X99344Y-47606D01*
X99280Y-47761D01*
X99279Y-47928D01*
X99343Y-48082D01*
X99461Y-48200D01*
X99616Y-48264D01*
X99783Y-48265D01*
X99937Y-48201D01*
X100055Y-48083D01*
X100119Y-47928D01*
X100120Y-47761D01*
X100120Y-48861D01*
X100056Y-48707D01*
X99938Y-48589D01*
X99783Y-48525D01*
X99616Y-48524D01*
X99462Y-48588D01*
X99344Y-48706D01*
X99280Y-48861D01*
X99279Y-49028D01*
X99343Y-49182D01*
X99461Y-49300D01*
X99616Y-49364D01*
X99783Y-49365D01*
X99937Y-49301D01*
X100055Y-49183D01*
X100119Y-49028D01*
X100120Y-48861D01*
X100120Y-49755D01*
X100084Y-49743D01*
X100001Y-49826D01*
X100001Y-49660D01*
X99972Y-49570D01*
X99770Y-49502D01*
X99557Y-49516D01*
X99427Y-49570D01*
X99398Y-49660D01*
X99700Y-49962D01*
X100001Y-49660D01*
X100001Y-49826D01*
X99782Y-50045D01*
X100084Y-50346D01*
X100174Y-50317D01*
X100242Y-50115D01*
X100242Y-52142D01*
X100207Y-52157D01*
X100001Y-52363D01*
X100001Y-50429D01*
X99700Y-50127D01*
X99617Y-50210D01*
X99617Y-50045D01*
X99315Y-49743D01*
X99225Y-49772D01*
X99157Y-49974D01*
X99171Y-50187D01*
X99225Y-50317D01*
X99315Y-50346D01*
X99617Y-50045D01*
X99617Y-50210D01*
X99398Y-50429D01*
X99427Y-50519D01*
X99629Y-50587D01*
X99842Y-50573D01*
X99972Y-50519D01*
X100001Y-50429D01*
X100001Y-52363D01*
X99962Y-52401D01*
X99830Y-52721D01*
X99829Y-53067D01*
X99962Y-53387D01*
X100206Y-53632D01*
X100526Y-53764D01*
X100872Y-53765D01*
X101192Y-53632D01*
X101437Y-53388D01*
X101569Y-53068D01*
X101570Y-52722D01*
X101570Y-63987D01*
X101523Y-63990D01*
X101369Y-64054D01*
X101334Y-64150D01*
X101675Y-64491D01*
X102015Y-64150D01*
X102015Y-64315D01*
X101757Y-64574D01*
X102098Y-64914D01*
X102194Y-64879D01*
X102272Y-64657D01*
X102272Y-68760D01*
X102149Y-68760D01*
X102149Y-66252D01*
X102077Y-66077D01*
X102015Y-66015D01*
X102015Y-64997D01*
X101675Y-64656D01*
X101592Y-64739D01*
X101592Y-64574D01*
X101251Y-64233D01*
X101155Y-64268D01*
X101077Y-64490D01*
X101091Y-64725D01*
X101155Y-64879D01*
X101251Y-64914D01*
X101592Y-64574D01*
X101592Y-64739D01*
X101334Y-64997D01*
X101369Y-65093D01*
X101591Y-65171D01*
X101826Y-65157D01*
X101980Y-65093D01*
X102015Y-64997D01*
X102015Y-66015D01*
X101944Y-65943D01*
X101769Y-65871D01*
X101581Y-65871D01*
X101406Y-65943D01*
X101272Y-66076D01*
X101200Y-66251D01*
X101200Y-66439D01*
X101272Y-66614D01*
X101405Y-66748D01*
X101580Y-66820D01*
X101768Y-66820D01*
X101943Y-66748D01*
X102077Y-66615D01*
X102149Y-66440D01*
X102149Y-66252D01*
X102149Y-68760D01*
X99712Y-68760D01*
X99712Y-64657D01*
X99698Y-64422D01*
X99634Y-64268D01*
X99538Y-64233D01*
X99455Y-64315D01*
X99455Y-64150D01*
X99420Y-64054D01*
X99240Y-63991D01*
X99240Y-51592D01*
X99203Y-51504D01*
X99136Y-51436D01*
X99047Y-51400D01*
X98952Y-51399D01*
X98864Y-51436D01*
X98860Y-51440D01*
X97408Y-51440D01*
X97408Y-41276D01*
X97408Y-40173D01*
X97390Y-40129D01*
X97356Y-40096D01*
X97312Y-40077D01*
X97264Y-40077D01*
X96792Y-40077D01*
X96748Y-40095D01*
X96714Y-40129D01*
X96696Y-40173D01*
X96696Y-40221D01*
X96696Y-41323D01*
X96714Y-41367D01*
X96748Y-41401D01*
X96792Y-41420D01*
X96840Y-41420D01*
X97312Y-41420D01*
X97356Y-41401D01*
X97390Y-41368D01*
X97408Y-41324D01*
X97408Y-41276D01*
X97408Y-51440D01*
X97047Y-51440D01*
X97014Y-51359D01*
X96875Y-51220D01*
X96693Y-51145D01*
X96496Y-51144D01*
X96314Y-51220D01*
X96175Y-51359D01*
X96153Y-51412D01*
X96153Y-42831D01*
X96153Y-41846D01*
X96089Y-41692D01*
X95971Y-41574D01*
X95817Y-41510D01*
X95650Y-41509D01*
X95495Y-41573D01*
X95377Y-41691D01*
X95320Y-41830D01*
X95263Y-41692D01*
X95145Y-41574D01*
X95066Y-41541D01*
X95066Y-40646D01*
X95066Y-40173D01*
X95047Y-40129D01*
X95014Y-40096D01*
X94970Y-40077D01*
X94922Y-40077D01*
X93820Y-40077D01*
X93775Y-40095D01*
X93742Y-40129D01*
X93723Y-40173D01*
X93723Y-40221D01*
X93723Y-40693D01*
X93742Y-40738D01*
X93775Y-40771D01*
X93819Y-40790D01*
X93867Y-40790D01*
X94969Y-40790D01*
X95014Y-40771D01*
X95047Y-40738D01*
X95066Y-40694D01*
X95066Y-40646D01*
X95066Y-41541D01*
X94990Y-41510D01*
X94823Y-41509D01*
X94669Y-41573D01*
X94550Y-41691D01*
X94486Y-41846D01*
X94486Y-42013D01*
X94550Y-42167D01*
X94668Y-42285D01*
X94822Y-42349D01*
X94989Y-42350D01*
X95144Y-42286D01*
X95262Y-42168D01*
X95320Y-42029D01*
X95377Y-42167D01*
X95495Y-42285D01*
X95649Y-42349D01*
X95816Y-42350D01*
X95971Y-42286D01*
X96089Y-42168D01*
X96153Y-42013D01*
X96153Y-41846D01*
X96153Y-42831D01*
X96089Y-42676D01*
X95971Y-42558D01*
X95817Y-42494D01*
X95650Y-42494D01*
X95495Y-42557D01*
X95377Y-42676D01*
X95313Y-42830D01*
X95313Y-42997D01*
X95377Y-43151D01*
X95495Y-43270D01*
X95649Y-43334D01*
X95816Y-43334D01*
X95971Y-43270D01*
X96089Y-43152D01*
X96153Y-42998D01*
X96153Y-42831D01*
X96153Y-51412D01*
X96100Y-51541D01*
X96099Y-51738D01*
X96175Y-51920D01*
X96314Y-52059D01*
X96496Y-52134D01*
X96693Y-52135D01*
X96875Y-52059D01*
X97014Y-51920D01*
X97047Y-51840D01*
X98860Y-51840D01*
X98863Y-51843D01*
X98952Y-51879D01*
X99047Y-51880D01*
X99135Y-51843D01*
X99203Y-51776D01*
X99239Y-51687D01*
X99240Y-51592D01*
X99240Y-63991D01*
X99198Y-63976D01*
X98963Y-63990D01*
X98809Y-64054D01*
X98774Y-64150D01*
X99115Y-64491D01*
X99455Y-64150D01*
X99455Y-64315D01*
X99197Y-64574D01*
X99538Y-64914D01*
X99634Y-64879D01*
X99712Y-64657D01*
X99712Y-68760D01*
X99589Y-68760D01*
X99589Y-66252D01*
X99517Y-66077D01*
X99455Y-66015D01*
X99455Y-64997D01*
X99115Y-64656D01*
X99032Y-64739D01*
X99032Y-64574D01*
X98691Y-64233D01*
X98595Y-64268D01*
X98517Y-64490D01*
X98531Y-64725D01*
X98595Y-64879D01*
X98691Y-64914D01*
X99032Y-64574D01*
X99032Y-64739D01*
X98774Y-64997D01*
X98809Y-65093D01*
X99031Y-65171D01*
X99266Y-65157D01*
X99420Y-65093D01*
X99455Y-64997D01*
X99455Y-66015D01*
X99384Y-65943D01*
X99209Y-65871D01*
X99021Y-65871D01*
X98846Y-65943D01*
X98712Y-66076D01*
X98640Y-66251D01*
X98640Y-66439D01*
X98712Y-66614D01*
X98845Y-66748D01*
X99020Y-66820D01*
X99208Y-66820D01*
X99383Y-66748D01*
X99517Y-66615D01*
X99589Y-66440D01*
X99589Y-66252D01*
X99589Y-68760D01*
X97547Y-68760D01*
X97547Y-64657D01*
X97533Y-64422D01*
X97469Y-64268D01*
X97373Y-64233D01*
X97290Y-64315D01*
X97290Y-64150D01*
X97255Y-64054D01*
X97212Y-64039D01*
X97212Y-60728D01*
X97199Y-60485D01*
X97131Y-60322D01*
X97033Y-60284D01*
X96950Y-60366D01*
X96950Y-60201D01*
X96912Y-60103D01*
X96683Y-60022D01*
X96440Y-60035D01*
X96277Y-60103D01*
X96239Y-60201D01*
X96595Y-60557D01*
X96950Y-60201D01*
X96950Y-60366D01*
X96677Y-60640D01*
X97033Y-60995D01*
X97131Y-60957D01*
X97212Y-60728D01*
X97212Y-64039D01*
X97033Y-63976D01*
X96950Y-63981D01*
X96950Y-61078D01*
X96595Y-60722D01*
X96512Y-60805D01*
X96512Y-60640D01*
X96156Y-60284D01*
X96090Y-60309D01*
X96090Y-51541D01*
X96014Y-51359D01*
X95875Y-51220D01*
X95693Y-51145D01*
X95496Y-51144D01*
X95314Y-51220D01*
X95175Y-51359D01*
X95100Y-51541D01*
X95099Y-51738D01*
X95175Y-51920D01*
X95314Y-52059D01*
X95496Y-52134D01*
X95693Y-52135D01*
X95875Y-52059D01*
X96014Y-51920D01*
X96089Y-51738D01*
X96090Y-51541D01*
X96090Y-60309D01*
X96058Y-60322D01*
X96031Y-60399D01*
X96014Y-60359D01*
X95875Y-60220D01*
X95693Y-60145D01*
X95496Y-60144D01*
X95314Y-60220D01*
X95175Y-60359D01*
X95100Y-60541D01*
X95099Y-60738D01*
X95175Y-60920D01*
X95314Y-61059D01*
X95496Y-61134D01*
X95693Y-61135D01*
X95875Y-61059D01*
X96014Y-60920D01*
X96028Y-60886D01*
X96058Y-60957D01*
X96156Y-60995D01*
X96512Y-60640D01*
X96512Y-60805D01*
X96239Y-61078D01*
X96277Y-61176D01*
X96506Y-61257D01*
X96749Y-61244D01*
X96912Y-61176D01*
X96950Y-61078D01*
X96950Y-63981D01*
X96798Y-63990D01*
X96644Y-64054D01*
X96609Y-64150D01*
X96950Y-64491D01*
X97290Y-64150D01*
X97290Y-64315D01*
X97032Y-64574D01*
X97373Y-64914D01*
X97469Y-64879D01*
X97547Y-64657D01*
X97547Y-68760D01*
X97424Y-68760D01*
X97424Y-66252D01*
X97352Y-66077D01*
X97290Y-66015D01*
X97290Y-64997D01*
X96950Y-64656D01*
X96867Y-64739D01*
X96867Y-64574D01*
X96526Y-64233D01*
X96430Y-64268D01*
X96352Y-64490D01*
X96366Y-64725D01*
X96430Y-64879D01*
X96526Y-64914D01*
X96867Y-64574D01*
X96867Y-64739D01*
X96609Y-64997D01*
X96644Y-65093D01*
X96866Y-65171D01*
X97101Y-65157D01*
X97255Y-65093D01*
X97290Y-64997D01*
X97290Y-66015D01*
X97219Y-65943D01*
X97044Y-65871D01*
X96856Y-65871D01*
X96681Y-65943D01*
X96547Y-66076D01*
X96475Y-66251D01*
X96475Y-66439D01*
X96547Y-66614D01*
X96680Y-66748D01*
X96855Y-66820D01*
X97043Y-66820D01*
X97218Y-66748D01*
X97352Y-66615D01*
X97424Y-66440D01*
X97424Y-66252D01*
X97424Y-68760D01*
X95090Y-68760D01*
X95090Y-60541D01*
X95090Y-51541D01*
X95014Y-51359D01*
X94875Y-51220D01*
X94693Y-51145D01*
X94496Y-51144D01*
X94314Y-51220D01*
X94303Y-51231D01*
X94303Y-41846D01*
X94239Y-41692D01*
X94121Y-41574D01*
X93967Y-41510D01*
X93800Y-41509D01*
X93645Y-41573D01*
X93540Y-41679D01*
X93531Y-41657D01*
X93440Y-41628D01*
X93357Y-41711D01*
X93357Y-41545D01*
X93329Y-41455D01*
X93126Y-41387D01*
X92913Y-41401D01*
X92783Y-41455D01*
X92755Y-41545D01*
X93056Y-41847D01*
X93357Y-41545D01*
X93357Y-41711D01*
X93139Y-41930D01*
X93440Y-42231D01*
X93531Y-42202D01*
X93538Y-42179D01*
X93644Y-42285D01*
X93799Y-42349D01*
X93966Y-42350D01*
X94120Y-42286D01*
X94239Y-42168D01*
X94303Y-42013D01*
X94303Y-41846D01*
X94303Y-51231D01*
X94175Y-51359D01*
X94100Y-51541D01*
X94099Y-51738D01*
X94175Y-51920D01*
X94314Y-52059D01*
X94496Y-52134D01*
X94693Y-52135D01*
X94875Y-52059D01*
X95014Y-51920D01*
X95089Y-51738D01*
X95090Y-51541D01*
X95090Y-60541D01*
X95014Y-60359D01*
X94875Y-60220D01*
X94693Y-60145D01*
X94496Y-60144D01*
X94314Y-60220D01*
X94175Y-60359D01*
X94100Y-60541D01*
X94099Y-60738D01*
X94175Y-60920D01*
X94314Y-61059D01*
X94496Y-61134D01*
X94693Y-61135D01*
X94875Y-61059D01*
X95014Y-60920D01*
X95089Y-60738D01*
X95090Y-60541D01*
X95090Y-68760D01*
X94987Y-68760D01*
X94987Y-64657D01*
X94973Y-64422D01*
X94909Y-64268D01*
X94813Y-64233D01*
X94730Y-64315D01*
X94730Y-64150D01*
X94695Y-64054D01*
X94473Y-63976D01*
X94238Y-63990D01*
X94090Y-64051D01*
X94090Y-60541D01*
X94090Y-51541D01*
X94014Y-51359D01*
X93875Y-51220D01*
X93693Y-51145D01*
X93496Y-51144D01*
X93476Y-51153D01*
X93476Y-42831D01*
X93412Y-42676D01*
X93357Y-42621D01*
X93357Y-42314D01*
X93056Y-42012D01*
X92973Y-42095D01*
X92973Y-41930D01*
X92672Y-41628D01*
X92581Y-41657D01*
X92513Y-41859D01*
X92528Y-42072D01*
X92581Y-42202D01*
X92672Y-42231D01*
X92973Y-41930D01*
X92973Y-42095D01*
X92755Y-42314D01*
X92783Y-42404D01*
X92986Y-42472D01*
X93199Y-42458D01*
X93329Y-42404D01*
X93357Y-42314D01*
X93357Y-42621D01*
X93294Y-42558D01*
X93140Y-42494D01*
X92973Y-42494D01*
X92818Y-42557D01*
X92700Y-42676D01*
X92636Y-42830D01*
X92636Y-42997D01*
X92700Y-43151D01*
X92818Y-43270D01*
X92972Y-43334D01*
X93139Y-43334D01*
X93294Y-43270D01*
X93412Y-43152D01*
X93476Y-42998D01*
X93476Y-42831D01*
X93476Y-51153D01*
X93314Y-51220D01*
X93175Y-51359D01*
X93100Y-51541D01*
X93099Y-51738D01*
X93175Y-51920D01*
X93314Y-52059D01*
X93496Y-52134D01*
X93693Y-52135D01*
X93875Y-52059D01*
X94014Y-51920D01*
X94089Y-51738D01*
X94090Y-51541D01*
X94090Y-60541D01*
X94014Y-60359D01*
X93875Y-60220D01*
X93693Y-60145D01*
X93496Y-60144D01*
X93314Y-60220D01*
X93175Y-60359D01*
X93100Y-60541D01*
X93099Y-60738D01*
X93175Y-60920D01*
X93314Y-61059D01*
X93496Y-61134D01*
X93693Y-61135D01*
X93875Y-61059D01*
X94014Y-60920D01*
X94089Y-60738D01*
X94090Y-60541D01*
X94090Y-64051D01*
X94084Y-64054D01*
X94049Y-64150D01*
X94390Y-64491D01*
X94730Y-64150D01*
X94730Y-64315D01*
X94472Y-64574D01*
X94813Y-64914D01*
X94909Y-64879D01*
X94987Y-64657D01*
X94987Y-68760D01*
X94864Y-68760D01*
X94864Y-66252D01*
X94792Y-66077D01*
X94730Y-66015D01*
X94730Y-64997D01*
X94390Y-64656D01*
X94307Y-64739D01*
X94307Y-64574D01*
X93966Y-64233D01*
X93870Y-64268D01*
X93792Y-64490D01*
X93806Y-64725D01*
X93870Y-64879D01*
X93966Y-64914D01*
X94307Y-64574D01*
X94307Y-64739D01*
X94049Y-64997D01*
X94084Y-65093D01*
X94306Y-65171D01*
X94541Y-65157D01*
X94695Y-65093D01*
X94730Y-64997D01*
X94730Y-66015D01*
X94659Y-65943D01*
X94484Y-65871D01*
X94296Y-65871D01*
X94121Y-65943D01*
X93987Y-66076D01*
X93915Y-66251D01*
X93915Y-66439D01*
X93987Y-66614D01*
X94120Y-66748D01*
X94295Y-66820D01*
X94483Y-66820D01*
X94658Y-66748D01*
X94792Y-66615D01*
X94864Y-66440D01*
X94864Y-66252D01*
X94864Y-68760D01*
X93090Y-68760D01*
X93090Y-60541D01*
X93090Y-51541D01*
X93014Y-51359D01*
X92875Y-51220D01*
X92693Y-51145D01*
X92496Y-51144D01*
X92314Y-51220D01*
X92175Y-51359D01*
X92161Y-51393D01*
X92131Y-51322D01*
X92093Y-51307D01*
X92093Y-41276D01*
X92093Y-40173D01*
X92075Y-40129D01*
X92041Y-40096D01*
X91997Y-40077D01*
X91949Y-40077D01*
X91477Y-40077D01*
X91433Y-40095D01*
X91399Y-40129D01*
X91381Y-40173D01*
X91381Y-40221D01*
X91381Y-41323D01*
X91399Y-41367D01*
X91433Y-41401D01*
X91477Y-41420D01*
X91525Y-41420D01*
X91997Y-41420D01*
X92041Y-41401D01*
X92075Y-41368D01*
X92093Y-41324D01*
X92093Y-41276D01*
X92093Y-51307D01*
X92033Y-51284D01*
X91950Y-51366D01*
X91950Y-51201D01*
X91912Y-51103D01*
X91683Y-51022D01*
X91440Y-51035D01*
X91277Y-51103D01*
X91239Y-51201D01*
X91595Y-51557D01*
X91950Y-51201D01*
X91950Y-51366D01*
X91677Y-51640D01*
X92033Y-51995D01*
X92131Y-51957D01*
X92158Y-51880D01*
X92175Y-51920D01*
X92314Y-52059D01*
X92496Y-52134D01*
X92693Y-52135D01*
X92875Y-52059D01*
X93014Y-51920D01*
X93089Y-51738D01*
X93090Y-51541D01*
X93090Y-60541D01*
X93014Y-60359D01*
X92875Y-60220D01*
X92693Y-60145D01*
X92496Y-60144D01*
X92314Y-60220D01*
X92175Y-60359D01*
X92100Y-60541D01*
X92099Y-60738D01*
X92175Y-60920D01*
X92314Y-61059D01*
X92496Y-61134D01*
X92693Y-61135D01*
X92875Y-61059D01*
X93014Y-60920D01*
X93089Y-60738D01*
X93090Y-60541D01*
X93090Y-68760D01*
X92822Y-68760D01*
X92822Y-64657D01*
X92808Y-64422D01*
X92744Y-64268D01*
X92648Y-64233D01*
X92565Y-64315D01*
X92565Y-64150D01*
X92530Y-64054D01*
X92308Y-63976D01*
X92090Y-63989D01*
X92090Y-60541D01*
X92014Y-60359D01*
X91950Y-60295D01*
X91950Y-52078D01*
X91595Y-51722D01*
X91512Y-51805D01*
X91512Y-51640D01*
X91156Y-51284D01*
X91058Y-51322D01*
X91031Y-51399D01*
X91014Y-51359D01*
X90875Y-51220D01*
X90693Y-51145D01*
X90496Y-51144D01*
X90314Y-51220D01*
X90175Y-51359D01*
X90100Y-51541D01*
X90099Y-51738D01*
X90175Y-51920D01*
X90314Y-52059D01*
X90496Y-52134D01*
X90693Y-52135D01*
X90875Y-52059D01*
X91014Y-51920D01*
X91028Y-51886D01*
X91058Y-51957D01*
X91156Y-51995D01*
X91512Y-51640D01*
X91512Y-51805D01*
X91239Y-52078D01*
X91277Y-52176D01*
X91506Y-52257D01*
X91749Y-52244D01*
X91912Y-52176D01*
X91950Y-52078D01*
X91950Y-60295D01*
X91875Y-60220D01*
X91693Y-60145D01*
X91496Y-60144D01*
X91314Y-60220D01*
X91175Y-60359D01*
X91100Y-60541D01*
X91099Y-60738D01*
X91175Y-60920D01*
X91314Y-61059D01*
X91496Y-61134D01*
X91693Y-61135D01*
X91875Y-61059D01*
X92014Y-60920D01*
X92089Y-60738D01*
X92090Y-60541D01*
X92090Y-63989D01*
X92073Y-63990D01*
X91919Y-64054D01*
X91884Y-64150D01*
X92225Y-64491D01*
X92565Y-64150D01*
X92565Y-64315D01*
X92307Y-64574D01*
X92648Y-64914D01*
X92744Y-64879D01*
X92822Y-64657D01*
X92822Y-68760D01*
X92699Y-68760D01*
X92699Y-66252D01*
X92627Y-66077D01*
X92565Y-66015D01*
X92565Y-64997D01*
X92225Y-64656D01*
X92142Y-64739D01*
X92142Y-64574D01*
X91801Y-64233D01*
X91705Y-64268D01*
X91627Y-64490D01*
X91641Y-64725D01*
X91705Y-64879D01*
X91801Y-64914D01*
X92142Y-64574D01*
X92142Y-64739D01*
X91884Y-64997D01*
X91919Y-65093D01*
X92141Y-65171D01*
X92376Y-65157D01*
X92530Y-65093D01*
X92565Y-64997D01*
X92565Y-66015D01*
X92494Y-65943D01*
X92319Y-65871D01*
X92131Y-65871D01*
X91956Y-65943D01*
X91822Y-66076D01*
X91750Y-66251D01*
X91750Y-66439D01*
X91822Y-66614D01*
X91955Y-66748D01*
X92130Y-66820D01*
X92318Y-66820D01*
X92493Y-66748D01*
X92627Y-66615D01*
X92699Y-66440D01*
X92699Y-66252D01*
X92699Y-68760D01*
X91090Y-68760D01*
X91090Y-60541D01*
X91014Y-60359D01*
X90875Y-60220D01*
X90693Y-60145D01*
X90496Y-60144D01*
X90314Y-60220D01*
X90175Y-60359D01*
X90100Y-60541D01*
X90099Y-60738D01*
X90175Y-60920D01*
X90314Y-61059D01*
X90496Y-61134D01*
X90693Y-61135D01*
X90875Y-61059D01*
X91014Y-60920D01*
X91089Y-60738D01*
X91090Y-60541D01*
X91090Y-68760D01*
X90262Y-68760D01*
X90262Y-64657D01*
X90248Y-64422D01*
X90184Y-64268D01*
X90090Y-64233D01*
X90090Y-60541D01*
X90090Y-51541D01*
X90014Y-51359D01*
X89875Y-51220D01*
X89693Y-51145D01*
X89496Y-51144D01*
X89314Y-51220D01*
X89175Y-51359D01*
X89100Y-51541D01*
X89099Y-51738D01*
X89175Y-51920D01*
X89314Y-52059D01*
X89496Y-52134D01*
X89693Y-52135D01*
X89875Y-52059D01*
X90014Y-51920D01*
X90089Y-51738D01*
X90090Y-51541D01*
X90090Y-60541D01*
X90014Y-60359D01*
X89875Y-60220D01*
X89693Y-60145D01*
X89496Y-60144D01*
X89314Y-60220D01*
X89175Y-60359D01*
X89100Y-60541D01*
X89099Y-60738D01*
X89175Y-60920D01*
X89314Y-61059D01*
X89496Y-61134D01*
X89693Y-61135D01*
X89875Y-61059D01*
X90014Y-60920D01*
X90089Y-60738D01*
X90090Y-60541D01*
X90090Y-64233D01*
X90088Y-64233D01*
X90005Y-64315D01*
X90005Y-64150D01*
X89970Y-64054D01*
X89748Y-63976D01*
X89513Y-63990D01*
X89359Y-64054D01*
X89324Y-64150D01*
X89665Y-64491D01*
X90005Y-64150D01*
X90005Y-64315D01*
X89747Y-64574D01*
X90088Y-64914D01*
X90184Y-64879D01*
X90262Y-64657D01*
X90262Y-68760D01*
X90139Y-68760D01*
X90139Y-66252D01*
X90067Y-66077D01*
X90005Y-66015D01*
X90005Y-64997D01*
X89665Y-64656D01*
X89582Y-64739D01*
X89582Y-64574D01*
X89241Y-64233D01*
X89145Y-64268D01*
X89090Y-64426D01*
X89090Y-60541D01*
X89090Y-51541D01*
X89014Y-51359D01*
X88875Y-51220D01*
X88693Y-51145D01*
X88496Y-51144D01*
X88314Y-51220D01*
X88175Y-51359D01*
X88100Y-51541D01*
X88099Y-51738D01*
X88175Y-51920D01*
X88314Y-52059D01*
X88496Y-52134D01*
X88693Y-52135D01*
X88875Y-52059D01*
X89014Y-51920D01*
X89089Y-51738D01*
X89090Y-51541D01*
X89090Y-60541D01*
X89014Y-60359D01*
X88875Y-60220D01*
X88693Y-60145D01*
X88496Y-60144D01*
X88314Y-60220D01*
X88175Y-60359D01*
X88100Y-60541D01*
X88099Y-60738D01*
X88175Y-60920D01*
X88314Y-61059D01*
X88496Y-61134D01*
X88693Y-61135D01*
X88875Y-61059D01*
X89014Y-60920D01*
X89089Y-60738D01*
X89090Y-60541D01*
X89090Y-64426D01*
X89067Y-64490D01*
X89081Y-64725D01*
X89145Y-64879D01*
X89241Y-64914D01*
X89582Y-64574D01*
X89582Y-64739D01*
X89324Y-64997D01*
X89359Y-65093D01*
X89581Y-65171D01*
X89816Y-65157D01*
X89970Y-65093D01*
X90005Y-64997D01*
X90005Y-66015D01*
X89934Y-65943D01*
X89759Y-65871D01*
X89571Y-65871D01*
X89396Y-65943D01*
X89262Y-66076D01*
X89190Y-66251D01*
X89190Y-66439D01*
X89262Y-66614D01*
X89395Y-66748D01*
X89570Y-66820D01*
X89758Y-66820D01*
X89933Y-66748D01*
X90067Y-66615D01*
X90139Y-66440D01*
X90139Y-66252D01*
X90139Y-68760D01*
X88097Y-68760D01*
X88097Y-64657D01*
X88090Y-64535D01*
X88090Y-60541D01*
X88090Y-51541D01*
X88014Y-51359D01*
X87875Y-51220D01*
X87693Y-51145D01*
X87496Y-51144D01*
X87314Y-51220D01*
X87175Y-51359D01*
X87100Y-51541D01*
X87099Y-51738D01*
X87175Y-51920D01*
X87314Y-52059D01*
X87496Y-52134D01*
X87693Y-52135D01*
X87875Y-52059D01*
X88014Y-51920D01*
X88089Y-51738D01*
X88090Y-51541D01*
X88090Y-60541D01*
X88014Y-60359D01*
X87875Y-60220D01*
X87693Y-60145D01*
X87496Y-60144D01*
X87314Y-60220D01*
X87175Y-60359D01*
X87100Y-60541D01*
X87099Y-60738D01*
X87175Y-60920D01*
X87314Y-61059D01*
X87496Y-61134D01*
X87693Y-61135D01*
X87875Y-61059D01*
X88014Y-60920D01*
X88089Y-60738D01*
X88090Y-60541D01*
X88090Y-64535D01*
X88083Y-64422D01*
X88019Y-64268D01*
X87923Y-64233D01*
X87840Y-64315D01*
X87840Y-64150D01*
X87805Y-64054D01*
X87583Y-63976D01*
X87348Y-63990D01*
X87194Y-64054D01*
X87159Y-64150D01*
X87500Y-64491D01*
X87840Y-64150D01*
X87840Y-64315D01*
X87582Y-64574D01*
X87923Y-64914D01*
X88019Y-64879D01*
X88097Y-64657D01*
X88097Y-68760D01*
X87974Y-68760D01*
X87974Y-66252D01*
X87902Y-66077D01*
X87840Y-66015D01*
X87840Y-64997D01*
X87500Y-64656D01*
X87417Y-64739D01*
X87417Y-64574D01*
X87090Y-64246D01*
X87090Y-60541D01*
X87090Y-51541D01*
X87014Y-51359D01*
X86875Y-51220D01*
X86836Y-51204D01*
X86836Y-43721D01*
X86722Y-43445D01*
X86511Y-43234D01*
X86235Y-43120D01*
X85937Y-43119D01*
X85661Y-43233D01*
X85450Y-43444D01*
X85336Y-43720D01*
X85335Y-44018D01*
X85449Y-44294D01*
X85660Y-44505D01*
X85936Y-44619D01*
X86234Y-44620D01*
X86510Y-44506D01*
X86721Y-44295D01*
X86835Y-44019D01*
X86836Y-43721D01*
X86836Y-51204D01*
X86693Y-51145D01*
X86496Y-51144D01*
X86314Y-51220D01*
X86175Y-51359D01*
X86100Y-51541D01*
X86099Y-51738D01*
X86175Y-51920D01*
X86314Y-52059D01*
X86496Y-52134D01*
X86693Y-52135D01*
X86875Y-52059D01*
X87014Y-51920D01*
X87089Y-51738D01*
X87090Y-51541D01*
X87090Y-60541D01*
X87014Y-60359D01*
X86875Y-60220D01*
X86693Y-60145D01*
X86496Y-60144D01*
X86314Y-60220D01*
X86175Y-60359D01*
X86100Y-60541D01*
X86099Y-60738D01*
X86175Y-60920D01*
X86314Y-61059D01*
X86496Y-61134D01*
X86693Y-61135D01*
X86875Y-61059D01*
X87014Y-60920D01*
X87089Y-60738D01*
X87090Y-60541D01*
X87090Y-64246D01*
X87076Y-64233D01*
X86980Y-64268D01*
X86902Y-64490D01*
X86916Y-64725D01*
X86980Y-64879D01*
X87076Y-64914D01*
X87417Y-64574D01*
X87417Y-64739D01*
X87159Y-64997D01*
X87194Y-65093D01*
X87416Y-65171D01*
X87651Y-65157D01*
X87805Y-65093D01*
X87840Y-64997D01*
X87840Y-66015D01*
X87769Y-65943D01*
X87594Y-65871D01*
X87406Y-65871D01*
X87231Y-65943D01*
X87097Y-66076D01*
X87025Y-66251D01*
X87025Y-66439D01*
X87097Y-66614D01*
X87230Y-66748D01*
X87405Y-66820D01*
X87593Y-66820D01*
X87768Y-66748D01*
X87902Y-66615D01*
X87974Y-66440D01*
X87974Y-66252D01*
X87974Y-68760D01*
X86090Y-68760D01*
X86090Y-60541D01*
X86090Y-51541D01*
X86014Y-51359D01*
X85875Y-51220D01*
X85693Y-51145D01*
X85496Y-51144D01*
X85314Y-51220D01*
X85175Y-51359D01*
X85100Y-51541D01*
X85099Y-51738D01*
X85175Y-51920D01*
X85314Y-52059D01*
X85496Y-52134D01*
X85693Y-52135D01*
X85875Y-52059D01*
X86014Y-51920D01*
X86089Y-51738D01*
X86090Y-51541D01*
X86090Y-60541D01*
X86014Y-60359D01*
X85875Y-60220D01*
X85693Y-60145D01*
X85496Y-60144D01*
X85314Y-60220D01*
X85175Y-60359D01*
X85100Y-60541D01*
X85099Y-60738D01*
X85175Y-60920D01*
X85314Y-61059D01*
X85496Y-61134D01*
X85693Y-61135D01*
X85875Y-61059D01*
X86014Y-60920D01*
X86089Y-60738D01*
X86090Y-60541D01*
X86090Y-68760D01*
X85537Y-68760D01*
X85537Y-64657D01*
X85523Y-64422D01*
X85459Y-64268D01*
X85363Y-64233D01*
X85280Y-64315D01*
X85280Y-64150D01*
X85245Y-64054D01*
X85090Y-64000D01*
X85090Y-60541D01*
X85090Y-51541D01*
X85014Y-51359D01*
X84875Y-51220D01*
X84693Y-51145D01*
X84496Y-51144D01*
X84314Y-51220D01*
X84175Y-51359D01*
X84100Y-51541D01*
X84099Y-51738D01*
X84175Y-51920D01*
X84314Y-52059D01*
X84496Y-52134D01*
X84693Y-52135D01*
X84875Y-52059D01*
X85014Y-51920D01*
X85089Y-51738D01*
X85090Y-51541D01*
X85090Y-60541D01*
X85014Y-60359D01*
X84875Y-60220D01*
X84693Y-60145D01*
X84496Y-60144D01*
X84314Y-60220D01*
X84175Y-60359D01*
X84100Y-60541D01*
X84099Y-60738D01*
X84175Y-60920D01*
X84314Y-61059D01*
X84496Y-61134D01*
X84693Y-61135D01*
X84875Y-61059D01*
X85014Y-60920D01*
X85089Y-60738D01*
X85090Y-60541D01*
X85090Y-64000D01*
X85023Y-63976D01*
X84788Y-63990D01*
X84634Y-64054D01*
X84599Y-64150D01*
X84940Y-64491D01*
X85280Y-64150D01*
X85280Y-64315D01*
X85022Y-64574D01*
X85363Y-64914D01*
X85459Y-64879D01*
X85537Y-64657D01*
X85537Y-68760D01*
X85414Y-68760D01*
X85414Y-66252D01*
X85342Y-66077D01*
X85280Y-66015D01*
X85280Y-64997D01*
X84940Y-64656D01*
X84857Y-64739D01*
X84857Y-64574D01*
X84516Y-64233D01*
X84420Y-64268D01*
X84342Y-64490D01*
X84356Y-64725D01*
X84420Y-64879D01*
X84516Y-64914D01*
X84857Y-64574D01*
X84857Y-64739D01*
X84599Y-64997D01*
X84634Y-65093D01*
X84856Y-65171D01*
X85091Y-65157D01*
X85245Y-65093D01*
X85280Y-64997D01*
X85280Y-66015D01*
X85209Y-65943D01*
X85034Y-65871D01*
X84846Y-65871D01*
X84671Y-65943D01*
X84537Y-66076D01*
X84465Y-66251D01*
X84465Y-66439D01*
X84537Y-66614D01*
X84670Y-66748D01*
X84845Y-66820D01*
X85033Y-66820D01*
X85208Y-66748D01*
X85342Y-66615D01*
X85414Y-66440D01*
X85414Y-66252D01*
X85414Y-68760D01*
X84090Y-68760D01*
X84090Y-60541D01*
X84090Y-51541D01*
X84014Y-51359D01*
X83986Y-51331D01*
X83986Y-43943D01*
X83972Y-43724D01*
X83916Y-43588D01*
X83823Y-43557D01*
X83741Y-43640D01*
X83741Y-43475D01*
X83710Y-43382D01*
X83502Y-43312D01*
X83305Y-43325D01*
X83305Y-42783D01*
X83238Y-42623D01*
X83116Y-42501D01*
X82956Y-42435D01*
X82783Y-42434D01*
X82623Y-42501D01*
X82501Y-42623D01*
X82435Y-42783D01*
X82434Y-42956D01*
X82501Y-43116D01*
X82623Y-43238D01*
X82783Y-43304D01*
X82956Y-43305D01*
X83116Y-43238D01*
X83238Y-43116D01*
X83304Y-42956D01*
X83305Y-42783D01*
X83305Y-43325D01*
X83283Y-43326D01*
X83147Y-43382D01*
X83116Y-43475D01*
X83429Y-43787D01*
X83741Y-43475D01*
X83741Y-43640D01*
X83511Y-43870D01*
X83823Y-44182D01*
X83916Y-44151D01*
X83986Y-43943D01*
X83986Y-51331D01*
X83875Y-51220D01*
X83741Y-51164D01*
X83741Y-44264D01*
X83429Y-43952D01*
X83346Y-44035D01*
X83346Y-43870D01*
X83034Y-43557D01*
X82978Y-43576D01*
X82921Y-43557D01*
X82839Y-43640D01*
X82839Y-43475D01*
X82808Y-43382D01*
X82600Y-43312D01*
X82403Y-43325D01*
X82403Y-42783D01*
X82336Y-42623D01*
X82214Y-42501D01*
X82054Y-42435D01*
X81881Y-42434D01*
X81721Y-42501D01*
X81599Y-42623D01*
X81533Y-42783D01*
X81532Y-42956D01*
X81599Y-43116D01*
X81721Y-43238D01*
X81881Y-43304D01*
X82054Y-43305D01*
X82214Y-43238D01*
X82336Y-43116D01*
X82402Y-42956D01*
X82403Y-42783D01*
X82403Y-43325D01*
X82381Y-43326D01*
X82245Y-43382D01*
X82214Y-43475D01*
X82527Y-43787D01*
X82839Y-43475D01*
X82839Y-43640D01*
X82609Y-43870D01*
X82921Y-44182D01*
X82978Y-44163D01*
X83034Y-44182D01*
X83346Y-43870D01*
X83346Y-44035D01*
X83116Y-44264D01*
X83147Y-44357D01*
X83355Y-44427D01*
X83574Y-44413D01*
X83710Y-44357D01*
X83741Y-44264D01*
X83741Y-51164D01*
X83693Y-51145D01*
X83496Y-51144D01*
X83314Y-51220D01*
X83305Y-51229D01*
X83305Y-44783D01*
X83238Y-44623D01*
X83116Y-44501D01*
X82956Y-44435D01*
X82839Y-44434D01*
X82839Y-44264D01*
X82527Y-43952D01*
X82444Y-44035D01*
X82444Y-43870D01*
X82132Y-43557D01*
X82076Y-43576D01*
X82020Y-43557D01*
X81938Y-43640D01*
X81938Y-43475D01*
X81907Y-43382D01*
X81699Y-43312D01*
X81501Y-43325D01*
X81501Y-42783D01*
X81434Y-42623D01*
X81312Y-42501D01*
X81152Y-42435D01*
X80979Y-42434D01*
X80819Y-42501D01*
X80697Y-42623D01*
X80631Y-42783D01*
X80630Y-42956D01*
X80697Y-43116D01*
X80819Y-43238D01*
X80979Y-43304D01*
X81152Y-43305D01*
X81312Y-43238D01*
X81434Y-43116D01*
X81500Y-42956D01*
X81501Y-42783D01*
X81501Y-43325D01*
X81480Y-43326D01*
X81344Y-43382D01*
X81313Y-43475D01*
X81626Y-43787D01*
X81938Y-43475D01*
X81938Y-43640D01*
X81708Y-43870D01*
X82020Y-44182D01*
X82076Y-44163D01*
X82132Y-44182D01*
X82444Y-43870D01*
X82444Y-44035D01*
X82214Y-44264D01*
X82245Y-44357D01*
X82453Y-44427D01*
X82672Y-44413D01*
X82808Y-44357D01*
X82839Y-44264D01*
X82839Y-44434D01*
X82783Y-44434D01*
X82623Y-44501D01*
X82501Y-44623D01*
X82435Y-44783D01*
X82434Y-44956D01*
X82501Y-45116D01*
X82623Y-45238D01*
X82783Y-45304D01*
X82956Y-45305D01*
X83116Y-45238D01*
X83238Y-45116D01*
X83304Y-44956D01*
X83305Y-44783D01*
X83305Y-51229D01*
X83175Y-51359D01*
X83100Y-51541D01*
X83099Y-51738D01*
X83175Y-51920D01*
X83314Y-52059D01*
X83496Y-52134D01*
X83693Y-52135D01*
X83875Y-52059D01*
X84014Y-51920D01*
X84089Y-51738D01*
X84090Y-51541D01*
X84090Y-60541D01*
X84014Y-60359D01*
X83875Y-60220D01*
X83693Y-60145D01*
X83496Y-60144D01*
X83314Y-60220D01*
X83175Y-60359D01*
X83100Y-60541D01*
X83099Y-60738D01*
X83175Y-60920D01*
X83314Y-61059D01*
X83496Y-61134D01*
X83693Y-61135D01*
X83875Y-61059D01*
X84014Y-60920D01*
X84089Y-60738D01*
X84090Y-60541D01*
X84090Y-68760D01*
X83090Y-68760D01*
X83090Y-60541D01*
X83090Y-51541D01*
X83014Y-51359D01*
X82875Y-51220D01*
X82693Y-51145D01*
X82496Y-51144D01*
X82403Y-51183D01*
X82403Y-44783D01*
X82336Y-44623D01*
X82214Y-44501D01*
X82054Y-44435D01*
X81938Y-44434D01*
X81938Y-44264D01*
X81626Y-43952D01*
X81543Y-44035D01*
X81543Y-43870D01*
X81231Y-43557D01*
X81138Y-43588D01*
X81102Y-43695D01*
X81072Y-43623D01*
X80950Y-43501D01*
X80790Y-43435D01*
X80617Y-43434D01*
X80600Y-43442D01*
X80600Y-42783D01*
X80533Y-42623D01*
X80411Y-42501D01*
X80251Y-42435D01*
X80078Y-42434D01*
X79918Y-42501D01*
X79796Y-42623D01*
X79780Y-42661D01*
X79750Y-42588D01*
X79657Y-42557D01*
X79575Y-42640D01*
X79575Y-42475D01*
X79544Y-42382D01*
X79336Y-42312D01*
X79117Y-42326D01*
X78981Y-42382D01*
X78950Y-42475D01*
X79263Y-42787D01*
X79575Y-42475D01*
X79575Y-42640D01*
X79345Y-42870D01*
X79657Y-43182D01*
X79750Y-43151D01*
X79777Y-43071D01*
X79796Y-43116D01*
X79918Y-43238D01*
X80078Y-43304D01*
X80251Y-43305D01*
X80411Y-43238D01*
X80533Y-43116D01*
X80599Y-42956D01*
X80600Y-42783D01*
X80600Y-43442D01*
X80457Y-43501D01*
X80335Y-43623D01*
X80329Y-43636D01*
X80310Y-43588D01*
X80217Y-43557D01*
X80135Y-43640D01*
X80135Y-43475D01*
X80104Y-43382D01*
X79896Y-43312D01*
X79677Y-43326D01*
X79575Y-43368D01*
X79575Y-43264D01*
X79263Y-42952D01*
X79180Y-43035D01*
X79180Y-42870D01*
X78868Y-42557D01*
X78775Y-42588D01*
X78705Y-42796D01*
X78719Y-43015D01*
X78775Y-43151D01*
X78868Y-43182D01*
X79180Y-42870D01*
X79180Y-43035D01*
X78950Y-43264D01*
X78981Y-43357D01*
X79189Y-43427D01*
X79408Y-43413D01*
X79544Y-43357D01*
X79575Y-43264D01*
X79575Y-43368D01*
X79541Y-43382D01*
X79510Y-43475D01*
X79823Y-43787D01*
X80135Y-43475D01*
X80135Y-43640D01*
X79905Y-43870D01*
X80217Y-44182D01*
X80310Y-44151D01*
X80327Y-44099D01*
X80335Y-44116D01*
X80457Y-44238D01*
X80617Y-44304D01*
X80790Y-44305D01*
X80950Y-44238D01*
X81072Y-44116D01*
X81098Y-44054D01*
X81138Y-44151D01*
X81231Y-44182D01*
X81543Y-43870D01*
X81543Y-44035D01*
X81313Y-44264D01*
X81344Y-44357D01*
X81552Y-44427D01*
X81771Y-44413D01*
X81907Y-44357D01*
X81938Y-44264D01*
X81938Y-44434D01*
X81881Y-44434D01*
X81721Y-44501D01*
X81599Y-44623D01*
X81533Y-44783D01*
X81532Y-44956D01*
X81599Y-45116D01*
X81721Y-45238D01*
X81881Y-45304D01*
X82054Y-45305D01*
X82214Y-45238D01*
X82336Y-45116D01*
X82402Y-44956D01*
X82403Y-44783D01*
X82403Y-51183D01*
X82314Y-51220D01*
X82175Y-51359D01*
X82100Y-51541D01*
X82099Y-51738D01*
X82175Y-51920D01*
X82314Y-52059D01*
X82496Y-52134D01*
X82693Y-52135D01*
X82875Y-52059D01*
X83014Y-51920D01*
X83089Y-51738D01*
X83090Y-51541D01*
X83090Y-60541D01*
X83014Y-60359D01*
X82875Y-60220D01*
X82693Y-60145D01*
X82496Y-60144D01*
X82314Y-60220D01*
X82175Y-60359D01*
X82100Y-60541D01*
X82099Y-60738D01*
X82175Y-60920D01*
X82314Y-61059D01*
X82496Y-61134D01*
X82693Y-61135D01*
X82875Y-61059D01*
X83014Y-60920D01*
X83089Y-60738D01*
X83090Y-60541D01*
X83090Y-68760D01*
X82090Y-68760D01*
X82090Y-60541D01*
X82090Y-51541D01*
X82014Y-51359D01*
X81875Y-51220D01*
X81693Y-51145D01*
X81501Y-51144D01*
X81501Y-44783D01*
X81434Y-44623D01*
X81312Y-44501D01*
X81152Y-44435D01*
X80979Y-44434D01*
X80819Y-44501D01*
X80697Y-44623D01*
X80631Y-44783D01*
X80630Y-44956D01*
X80697Y-45116D01*
X80819Y-45238D01*
X80979Y-45304D01*
X81152Y-45305D01*
X81312Y-45238D01*
X81434Y-45116D01*
X81500Y-44956D01*
X81501Y-44783D01*
X81501Y-51144D01*
X81496Y-51144D01*
X81314Y-51220D01*
X81175Y-51359D01*
X81100Y-51541D01*
X81099Y-51738D01*
X81175Y-51920D01*
X81314Y-52059D01*
X81496Y-52134D01*
X81693Y-52135D01*
X81875Y-52059D01*
X82014Y-51920D01*
X82089Y-51738D01*
X82090Y-51541D01*
X82090Y-60541D01*
X82014Y-60359D01*
X81875Y-60220D01*
X81693Y-60145D01*
X81496Y-60144D01*
X81314Y-60220D01*
X81175Y-60359D01*
X81100Y-60541D01*
X81099Y-60738D01*
X81175Y-60920D01*
X81314Y-61059D01*
X81496Y-61134D01*
X81693Y-61135D01*
X81875Y-61059D01*
X82014Y-60920D01*
X82089Y-60738D01*
X82090Y-60541D01*
X82090Y-68760D01*
X81090Y-68760D01*
X81090Y-60541D01*
X81090Y-51541D01*
X81014Y-51359D01*
X80875Y-51220D01*
X80693Y-51145D01*
X80600Y-51145D01*
X80600Y-44783D01*
X80533Y-44623D01*
X80411Y-44501D01*
X80251Y-44435D01*
X80135Y-44434D01*
X80135Y-44264D01*
X79823Y-43952D01*
X79740Y-44035D01*
X79740Y-43870D01*
X79428Y-43557D01*
X79335Y-43588D01*
X79265Y-43796D01*
X79279Y-44015D01*
X79335Y-44151D01*
X79428Y-44182D01*
X79740Y-43870D01*
X79740Y-44035D01*
X79510Y-44264D01*
X79541Y-44357D01*
X79749Y-44427D01*
X79968Y-44413D01*
X80104Y-44357D01*
X80135Y-44264D01*
X80135Y-44434D01*
X80078Y-44434D01*
X79918Y-44501D01*
X79796Y-44623D01*
X79730Y-44783D01*
X79729Y-44956D01*
X79796Y-45116D01*
X79918Y-45238D01*
X80078Y-45304D01*
X80251Y-45305D01*
X80411Y-45238D01*
X80533Y-45116D01*
X80599Y-44956D01*
X80600Y-44783D01*
X80600Y-51145D01*
X80496Y-51144D01*
X80314Y-51220D01*
X80175Y-51359D01*
X80100Y-51541D01*
X80099Y-51738D01*
X80175Y-51920D01*
X80314Y-52059D01*
X80496Y-52134D01*
X80693Y-52135D01*
X80875Y-52059D01*
X81014Y-51920D01*
X81089Y-51738D01*
X81090Y-51541D01*
X81090Y-60541D01*
X81014Y-60359D01*
X80875Y-60220D01*
X80693Y-60145D01*
X80496Y-60144D01*
X80314Y-60220D01*
X80175Y-60359D01*
X80100Y-60541D01*
X80099Y-60738D01*
X80175Y-60920D01*
X80314Y-61059D01*
X80496Y-61134D01*
X80693Y-61135D01*
X80875Y-61059D01*
X81014Y-60920D01*
X81089Y-60738D01*
X81090Y-60541D01*
X81090Y-68760D01*
X80750Y-68760D01*
X80750Y-66162D01*
X80713Y-66074D01*
X80710Y-66070D01*
X80710Y-64029D01*
X80713Y-64026D01*
X80749Y-63937D01*
X80750Y-63842D01*
X80713Y-63754D01*
X80646Y-63686D01*
X80557Y-63650D01*
X80462Y-63649D01*
X80374Y-63686D01*
X80306Y-63753D01*
X80270Y-63842D01*
X80269Y-63937D01*
X80306Y-64025D01*
X80310Y-64029D01*
X80310Y-66070D01*
X80306Y-66073D01*
X80270Y-66162D01*
X80269Y-66257D01*
X80306Y-66345D01*
X80373Y-66413D01*
X80462Y-66449D01*
X80557Y-66450D01*
X80645Y-66413D01*
X80713Y-66346D01*
X80749Y-66257D01*
X80750Y-66162D01*
X80750Y-68760D01*
X80090Y-68760D01*
X80090Y-60541D01*
X80090Y-51541D01*
X80014Y-51359D01*
X79875Y-51220D01*
X79698Y-51146D01*
X79698Y-44783D01*
X79631Y-44623D01*
X79509Y-44501D01*
X79349Y-44435D01*
X79176Y-44434D01*
X79016Y-44501D01*
X78894Y-44623D01*
X78828Y-44783D01*
X78827Y-44956D01*
X78894Y-45116D01*
X79016Y-45238D01*
X79176Y-45304D01*
X79349Y-45305D01*
X79509Y-45238D01*
X79631Y-45116D01*
X79697Y-44956D01*
X79698Y-44783D01*
X79698Y-51146D01*
X79693Y-51145D01*
X79496Y-51144D01*
X79314Y-51220D01*
X79175Y-51359D01*
X79100Y-51541D01*
X79099Y-51738D01*
X79175Y-51920D01*
X79314Y-52059D01*
X79496Y-52134D01*
X79693Y-52135D01*
X79875Y-52059D01*
X80014Y-51920D01*
X80089Y-51738D01*
X80090Y-51541D01*
X80090Y-60541D01*
X80014Y-60359D01*
X79875Y-60220D01*
X79693Y-60145D01*
X79496Y-60144D01*
X79314Y-60220D01*
X79175Y-60359D01*
X79100Y-60541D01*
X79099Y-60738D01*
X79175Y-60920D01*
X79314Y-61059D01*
X79496Y-61134D01*
X79693Y-61135D01*
X79875Y-61059D01*
X80014Y-60920D01*
X80089Y-60738D01*
X80090Y-60541D01*
X80090Y-68760D01*
X79090Y-68760D01*
X79090Y-60541D01*
X79090Y-51541D01*
X79014Y-51359D01*
X78920Y-51264D01*
X78920Y-49416D01*
X78856Y-49262D01*
X78738Y-49144D01*
X78583Y-49080D01*
X78416Y-49079D01*
X78262Y-49143D01*
X78144Y-49261D01*
X78080Y-49416D01*
X78079Y-49583D01*
X78143Y-49737D01*
X78261Y-49855D01*
X78416Y-49919D01*
X78583Y-49920D01*
X78737Y-49856D01*
X78855Y-49738D01*
X78919Y-49583D01*
X78920Y-49416D01*
X78920Y-51264D01*
X78875Y-51220D01*
X78693Y-51145D01*
X78496Y-51144D01*
X78314Y-51220D01*
X78175Y-51359D01*
X78100Y-51541D01*
X78099Y-51738D01*
X78175Y-51920D01*
X78314Y-52059D01*
X78496Y-52134D01*
X78693Y-52135D01*
X78875Y-52059D01*
X79014Y-51920D01*
X79089Y-51738D01*
X79090Y-51541D01*
X79090Y-60541D01*
X79014Y-60359D01*
X78875Y-60220D01*
X78693Y-60145D01*
X78496Y-60144D01*
X78314Y-60220D01*
X78175Y-60359D01*
X78100Y-60541D01*
X78099Y-60738D01*
X78175Y-60920D01*
X78314Y-61059D01*
X78496Y-61134D01*
X78693Y-61135D01*
X78875Y-61059D01*
X79014Y-60920D01*
X79089Y-60738D01*
X79090Y-60541D01*
X79090Y-68760D01*
X78090Y-68760D01*
X78090Y-60541D01*
X78090Y-51541D01*
X78014Y-51359D01*
X77920Y-51264D01*
X77920Y-48416D01*
X77856Y-48262D01*
X77738Y-48144D01*
X77583Y-48080D01*
X77416Y-48079D01*
X77262Y-48143D01*
X77144Y-48261D01*
X77080Y-48416D01*
X77079Y-48583D01*
X77143Y-48737D01*
X77261Y-48855D01*
X77416Y-48919D01*
X77583Y-48920D01*
X77737Y-48856D01*
X77855Y-48738D01*
X77919Y-48583D01*
X77920Y-48416D01*
X77920Y-51264D01*
X77875Y-51220D01*
X77693Y-51145D01*
X77496Y-51144D01*
X77314Y-51220D01*
X77175Y-51359D01*
X77100Y-51541D01*
X77099Y-51738D01*
X77175Y-51920D01*
X77314Y-52059D01*
X77496Y-52134D01*
X77693Y-52135D01*
X77875Y-52059D01*
X78014Y-51920D01*
X78089Y-51738D01*
X78090Y-51541D01*
X78090Y-60541D01*
X78014Y-60359D01*
X77875Y-60220D01*
X77693Y-60145D01*
X77496Y-60144D01*
X77314Y-60220D01*
X77175Y-60359D01*
X77100Y-60541D01*
X77099Y-60738D01*
X77175Y-60920D01*
X77314Y-61059D01*
X77496Y-61134D01*
X77693Y-61135D01*
X77875Y-61059D01*
X78014Y-60920D01*
X78089Y-60738D01*
X78090Y-60541D01*
X78090Y-68760D01*
X77090Y-68760D01*
X77090Y-60541D01*
X77090Y-51541D01*
X77014Y-51359D01*
X76994Y-51339D01*
X76994Y-43721D01*
X76880Y-43445D01*
X76669Y-43234D01*
X76393Y-43120D01*
X76095Y-43119D01*
X75819Y-43233D01*
X75608Y-43444D01*
X75494Y-43720D01*
X75493Y-44018D01*
X75607Y-44294D01*
X75818Y-44505D01*
X76094Y-44619D01*
X76392Y-44620D01*
X76668Y-44506D01*
X76879Y-44295D01*
X76993Y-44019D01*
X76994Y-43721D01*
X76994Y-51339D01*
X76920Y-51264D01*
X76920Y-49416D01*
X76856Y-49262D01*
X76738Y-49144D01*
X76583Y-49080D01*
X76416Y-49079D01*
X76262Y-49143D01*
X76144Y-49261D01*
X76080Y-49416D01*
X76079Y-49583D01*
X76143Y-49737D01*
X76261Y-49855D01*
X76416Y-49919D01*
X76583Y-49920D01*
X76737Y-49856D01*
X76855Y-49738D01*
X76919Y-49583D01*
X76920Y-49416D01*
X76920Y-51264D01*
X76875Y-51220D01*
X76693Y-51145D01*
X76496Y-51144D01*
X76314Y-51220D01*
X76175Y-51359D01*
X76100Y-51541D01*
X76099Y-51738D01*
X76175Y-51920D01*
X76314Y-52059D01*
X76496Y-52134D01*
X76693Y-52135D01*
X76875Y-52059D01*
X77014Y-51920D01*
X77089Y-51738D01*
X77090Y-51541D01*
X77090Y-60541D01*
X77014Y-60359D01*
X76875Y-60220D01*
X76693Y-60145D01*
X76496Y-60144D01*
X76314Y-60220D01*
X76175Y-60359D01*
X76100Y-60541D01*
X76099Y-60738D01*
X76175Y-60920D01*
X76314Y-61059D01*
X76496Y-61134D01*
X76693Y-61135D01*
X76875Y-61059D01*
X77014Y-60920D01*
X77089Y-60738D01*
X77090Y-60541D01*
X77090Y-68760D01*
X76765Y-68760D01*
X76765Y-67437D01*
X76728Y-67349D01*
X76725Y-67345D01*
X76725Y-66349D01*
X76728Y-66346D01*
X76764Y-66257D01*
X76765Y-66162D01*
X76728Y-66074D01*
X76725Y-66070D01*
X76725Y-64375D01*
X76715Y-64324D01*
X76715Y-64024D01*
X76718Y-64021D01*
X76754Y-63932D01*
X76755Y-63837D01*
X76718Y-63749D01*
X76651Y-63681D01*
X76562Y-63645D01*
X76467Y-63644D01*
X76379Y-63681D01*
X76311Y-63748D01*
X76275Y-63837D01*
X76274Y-63932D01*
X76311Y-64020D01*
X76315Y-64024D01*
X76315Y-64365D01*
X76325Y-64415D01*
X76325Y-66070D01*
X76321Y-66073D01*
X76285Y-66162D01*
X76284Y-66257D01*
X76321Y-66345D01*
X76325Y-66349D01*
X76325Y-67345D01*
X76321Y-67348D01*
X76285Y-67437D01*
X76284Y-67532D01*
X76321Y-67620D01*
X76388Y-67688D01*
X76477Y-67724D01*
X76572Y-67725D01*
X76660Y-67688D01*
X76728Y-67621D01*
X76764Y-67532D01*
X76765Y-67437D01*
X76765Y-68760D01*
X76090Y-68760D01*
X76090Y-60541D01*
X76090Y-51541D01*
X76014Y-51359D01*
X75920Y-51264D01*
X75920Y-48416D01*
X75856Y-48262D01*
X75738Y-48144D01*
X75583Y-48080D01*
X75416Y-48079D01*
X75262Y-48143D01*
X75144Y-48261D01*
X75080Y-48416D01*
X75079Y-48583D01*
X75143Y-48737D01*
X75261Y-48855D01*
X75416Y-48919D01*
X75583Y-48920D01*
X75737Y-48856D01*
X75855Y-48738D01*
X75919Y-48583D01*
X75920Y-48416D01*
X75920Y-51264D01*
X75875Y-51220D01*
X75693Y-51145D01*
X75496Y-51144D01*
X75314Y-51220D01*
X75175Y-51359D01*
X75100Y-51541D01*
X75099Y-51738D01*
X75175Y-51920D01*
X75314Y-52059D01*
X75496Y-52134D01*
X75693Y-52135D01*
X75875Y-52059D01*
X76014Y-51920D01*
X76089Y-51738D01*
X76090Y-51541D01*
X76090Y-60541D01*
X76014Y-60359D01*
X75875Y-60220D01*
X75693Y-60145D01*
X75496Y-60144D01*
X75314Y-60220D01*
X75175Y-60359D01*
X75100Y-60541D01*
X75099Y-60738D01*
X75175Y-60920D01*
X75314Y-61059D01*
X75496Y-61134D01*
X75693Y-61135D01*
X75875Y-61059D01*
X76014Y-60920D01*
X76089Y-60738D01*
X76090Y-60541D01*
X76090Y-68760D01*
X75090Y-68760D01*
X75090Y-60541D01*
X75090Y-51541D01*
X75014Y-51359D01*
X74875Y-51220D01*
X74693Y-51145D01*
X74496Y-51144D01*
X74314Y-51220D01*
X74175Y-51359D01*
X74100Y-51541D01*
X74099Y-51738D01*
X74175Y-51920D01*
X74314Y-52059D01*
X74496Y-52134D01*
X74693Y-52135D01*
X74875Y-52059D01*
X75014Y-51920D01*
X75089Y-51738D01*
X75090Y-51541D01*
X75090Y-60541D01*
X75014Y-60359D01*
X74875Y-60220D01*
X74693Y-60145D01*
X74496Y-60144D01*
X74314Y-60220D01*
X74175Y-60359D01*
X74100Y-60541D01*
X74099Y-60738D01*
X74175Y-60920D01*
X74314Y-61059D01*
X74496Y-61134D01*
X74693Y-61135D01*
X74875Y-61059D01*
X75014Y-60920D01*
X75089Y-60738D01*
X75090Y-60541D01*
X75090Y-68760D01*
X74090Y-68760D01*
X74090Y-60541D01*
X74090Y-51541D01*
X74014Y-51359D01*
X73875Y-51220D01*
X73693Y-51145D01*
X73496Y-51144D01*
X73314Y-51220D01*
X73175Y-51359D01*
X73100Y-51541D01*
X73099Y-51738D01*
X73175Y-51920D01*
X73314Y-52059D01*
X73496Y-52134D01*
X73693Y-52135D01*
X73875Y-52059D01*
X74014Y-51920D01*
X74089Y-51738D01*
X74090Y-51541D01*
X74090Y-60541D01*
X74014Y-60359D01*
X73875Y-60220D01*
X73693Y-60145D01*
X73496Y-60144D01*
X73314Y-60220D01*
X73175Y-60359D01*
X73100Y-60541D01*
X73099Y-60738D01*
X73175Y-60920D01*
X73314Y-61059D01*
X73496Y-61134D01*
X73693Y-61135D01*
X73875Y-61059D01*
X74014Y-60920D01*
X74089Y-60738D01*
X74090Y-60541D01*
X74090Y-68760D01*
X73090Y-68760D01*
X73090Y-60541D01*
X73090Y-51541D01*
X73014Y-51359D01*
X72875Y-51220D01*
X72693Y-51145D01*
X72496Y-51144D01*
X72314Y-51220D01*
X72175Y-51359D01*
X72100Y-51541D01*
X72099Y-51738D01*
X72175Y-51920D01*
X72314Y-52059D01*
X72496Y-52134D01*
X72693Y-52135D01*
X72875Y-52059D01*
X73014Y-51920D01*
X73089Y-51738D01*
X73090Y-51541D01*
X73090Y-60541D01*
X73014Y-60359D01*
X72875Y-60220D01*
X72693Y-60145D01*
X72496Y-60144D01*
X72314Y-60220D01*
X72175Y-60359D01*
X72100Y-60541D01*
X72099Y-60738D01*
X72175Y-60920D01*
X72314Y-61059D01*
X72496Y-61134D01*
X72693Y-61135D01*
X72875Y-61059D01*
X73014Y-60920D01*
X73089Y-60738D01*
X73090Y-60541D01*
X73090Y-68760D01*
X71178Y-68760D01*
X71178Y-42133D01*
X71178Y-41884D01*
X71111Y-41743D01*
X70983Y-41630D01*
X70821Y-41575D01*
X70329Y-41575D01*
X70329Y-41950D01*
X71133Y-41950D01*
X71178Y-41884D01*
X71178Y-42133D01*
X71133Y-42067D01*
X70329Y-42067D01*
X70329Y-42442D01*
X70821Y-42442D01*
X70983Y-42387D01*
X71111Y-42274D01*
X71178Y-42133D01*
X71178Y-68760D01*
X71095Y-68760D01*
X71095Y-44764D01*
X71071Y-44642D01*
X71003Y-44539D01*
X70900Y-44471D01*
X70778Y-44447D01*
X70212Y-44447D01*
X70212Y-42442D01*
X70212Y-42067D01*
X70212Y-41950D01*
X70212Y-41575D01*
X69720Y-41575D01*
X69558Y-41630D01*
X69430Y-41743D01*
X69363Y-41884D01*
X69408Y-41950D01*
X70212Y-41950D01*
X70212Y-42067D01*
X69408Y-42067D01*
X69363Y-42133D01*
X69430Y-42274D01*
X69558Y-42387D01*
X69720Y-42442D01*
X70212Y-42442D01*
X70212Y-44447D01*
X69763Y-44447D01*
X69641Y-44471D01*
X69538Y-44539D01*
X69470Y-44642D01*
X69446Y-44764D01*
X69470Y-44885D01*
X69538Y-44988D01*
X69641Y-45056D01*
X69763Y-45081D01*
X70778Y-45081D01*
X70900Y-45056D01*
X71003Y-44988D01*
X71071Y-44885D01*
X71095Y-44764D01*
X71095Y-68760D01*
X68697Y-68760D01*
X68697Y-44046D01*
X68697Y-43031D01*
X68672Y-42909D01*
X68604Y-42806D01*
X68501Y-42738D01*
X68380Y-42714D01*
X68258Y-42738D01*
X68155Y-42806D01*
X68087Y-42909D01*
X68063Y-43031D01*
X68063Y-44046D01*
X68087Y-44168D01*
X68155Y-44271D01*
X68258Y-44339D01*
X68380Y-44363D01*
X68501Y-44339D01*
X68604Y-44271D01*
X68672Y-44168D01*
X68697Y-44046D01*
X68697Y-68760D01*
X68647Y-68760D01*
X68647Y-50255D01*
X68633Y-50042D01*
X68579Y-49912D01*
X68489Y-49883D01*
X68406Y-49966D01*
X68406Y-49800D01*
X68377Y-49710D01*
X68175Y-49642D01*
X67962Y-49656D01*
X67832Y-49710D01*
X67803Y-49800D01*
X68105Y-50102D01*
X68406Y-49800D01*
X68406Y-49966D01*
X68187Y-50185D01*
X68489Y-50486D01*
X68579Y-50457D01*
X68647Y-50255D01*
X68647Y-68760D01*
X68406Y-68760D01*
X68406Y-50569D01*
X68105Y-50267D01*
X68022Y-50350D01*
X68022Y-50185D01*
X67720Y-49883D01*
X67630Y-49912D01*
X67562Y-50114D01*
X67576Y-50327D01*
X67630Y-50457D01*
X67720Y-50486D01*
X68022Y-50185D01*
X68022Y-50350D01*
X67803Y-50569D01*
X67832Y-50659D01*
X68034Y-50727D01*
X68247Y-50713D01*
X68377Y-50659D01*
X68406Y-50569D01*
X68406Y-68760D01*
X67069Y-68760D01*
X67069Y-39509D01*
X106160Y-39509D01*
X106160Y-68760D01*
M02*
