G04 (created by PCBNEW (2014-01-10 BZR 4027)-stable) date Tue 11 Mar 2014 09:34:13 AM CET*
%MOIN*%
G04 Gerber Fmt 3.4, Leading zero omitted, Abs format*
%FSLAX34Y34*%
G01*
G70*
G90*
G04 APERTURE LIST*
%ADD10C,0.00590551*%
%ADD11R,0.036X0.036*%
%ADD12R,0.045X0.02*%
%ADD13R,0.08X0.06*%
%ADD14R,0.045X0.025*%
%ADD15R,0.025X0.045*%
%ADD16R,0.0700787X0.137795*%
%ADD17R,0.0984X0.1378*%
%ADD18O,0.0394X0.1378*%
%ADD19O,0.1378X0.0394*%
%ADD20R,0.0118X0.0701*%
%ADD21R,0.0551X0.0472*%
%ADD22R,0.06X0.08*%
G04 APERTURE END LIST*
G54D10*
G54D11*
X91525Y-46785D03*
X92225Y-46785D03*
X91875Y-47585D03*
X89515Y-46785D03*
X90215Y-46785D03*
X89865Y-47585D03*
X88905Y-47585D03*
X88205Y-47585D03*
X88555Y-46785D03*
X93535Y-47585D03*
X92835Y-47585D03*
X93185Y-46785D03*
G54D12*
X76060Y-66210D03*
X78160Y-66210D03*
X76060Y-65710D03*
X76060Y-65210D03*
X76060Y-64710D03*
X78160Y-65710D03*
X78160Y-65210D03*
X78160Y-64710D03*
X80045Y-63890D03*
X82145Y-63890D03*
X80045Y-63390D03*
X80045Y-62890D03*
X80045Y-62390D03*
X82145Y-63390D03*
X82145Y-62890D03*
X82145Y-62390D03*
X76050Y-63885D03*
X78150Y-63885D03*
X76050Y-63385D03*
X76050Y-62885D03*
X76050Y-62385D03*
X78150Y-63385D03*
X78150Y-62885D03*
X78150Y-62385D03*
X80045Y-66210D03*
X82145Y-66210D03*
X80045Y-65710D03*
X80045Y-65210D03*
X80045Y-64710D03*
X82145Y-65710D03*
X82145Y-65210D03*
X82145Y-64710D03*
G54D13*
X68950Y-58050D03*
X68950Y-59350D03*
G54D14*
X82065Y-46895D03*
X82065Y-46295D03*
X83235Y-49570D03*
X83235Y-48970D03*
X82065Y-49570D03*
X82065Y-48970D03*
X84405Y-46890D03*
X84405Y-46290D03*
X83235Y-46895D03*
X83235Y-46295D03*
G54D15*
X91275Y-48375D03*
X91875Y-48375D03*
X84405Y-47665D03*
X85005Y-47665D03*
X83235Y-47665D03*
X83835Y-47665D03*
X82065Y-47665D03*
X82665Y-47665D03*
G54D14*
X84405Y-49570D03*
X84405Y-48970D03*
G54D15*
X92835Y-49425D03*
X92235Y-49425D03*
X87605Y-48760D03*
X88205Y-48760D03*
X89865Y-48375D03*
X90465Y-48375D03*
G54D14*
X89515Y-45170D03*
X89515Y-45770D03*
X91525Y-45770D03*
X91525Y-45170D03*
G54D15*
X90265Y-43020D03*
X90865Y-43020D03*
X90265Y-42420D03*
X90865Y-42420D03*
X71905Y-48090D03*
X72505Y-48090D03*
G54D16*
X69265Y-46020D03*
X71324Y-46020D03*
G54D17*
X68103Y-48295D03*
X70367Y-48295D03*
G54D18*
X68380Y-43539D03*
G54D19*
X70271Y-44764D03*
X70271Y-42009D03*
G54D20*
X97628Y-46681D03*
X97372Y-46681D03*
X97116Y-46681D03*
X96860Y-46681D03*
X96604Y-46681D03*
X96348Y-46681D03*
X96092Y-46681D03*
X95836Y-46681D03*
X95836Y-49019D03*
X96092Y-49019D03*
X96348Y-49019D03*
X96604Y-49019D03*
X96860Y-49019D03*
X97116Y-49019D03*
X97372Y-49019D03*
X97628Y-49019D03*
G54D15*
X100125Y-63835D03*
X99525Y-63835D03*
X97070Y-45725D03*
X97670Y-45725D03*
X95400Y-63835D03*
X94800Y-63835D03*
X90675Y-63835D03*
X90075Y-63835D03*
X101265Y-63835D03*
X100665Y-63835D03*
X96540Y-63835D03*
X95940Y-63835D03*
X91815Y-63835D03*
X91215Y-63835D03*
X87090Y-63835D03*
X86490Y-63835D03*
X85950Y-63835D03*
X85350Y-63835D03*
X95730Y-45725D03*
X95130Y-45725D03*
X97375Y-45065D03*
X97975Y-45065D03*
X96100Y-45065D03*
X96700Y-45065D03*
G54D21*
X69865Y-52503D03*
X70865Y-52503D03*
X70865Y-51637D03*
X69865Y-51637D03*
X69860Y-54553D03*
X70860Y-54553D03*
X70860Y-53687D03*
X69860Y-53687D03*
G54D22*
X70990Y-56880D03*
X69690Y-56880D03*
G54D15*
X69865Y-50960D03*
X70465Y-50960D03*
G54D14*
X81030Y-67050D03*
X81030Y-67650D03*
X98665Y-49780D03*
X98665Y-49180D03*
G54D15*
X87530Y-47185D03*
X86930Y-47185D03*
G54D13*
X98400Y-57325D03*
X98400Y-58625D03*
M02*
